<?xml version="1.0" encoding="UTF-8" standalone="no"?>
<svg
   xmlns:dc="http://purl.org/dc/elements/1.1/"
   xmlns:cc="http://creativecommons.org/ns#"
   xmlns:rdf="http://www.w3.org/1999/02/22-rdf-syntax-ns#"
   xmlns:svg="http://www.w3.org/2000/svg"
   xmlns="http://www.w3.org/2000/svg"
   xmlns:sodipodi="http://sodipodi.sourceforge.net/DTD/sodipodi-0.dtd"
   xmlns:inkscape="http://www.inkscape.org/namespaces/inkscape"
   inkscape:version="1.0 (4035a4fb49, 2020-05-01)"
   sodipodi:docname="DIAMOND-2.svg"
   width="69.087997mm"
   height="93.980003mm"
   viewBox="0 0 261.11999 355.20002"
   version="1.1"
   id="svg8">
  <sodipodi:namedview
     inkscape:document-rotation="0"
     inkscape:current-layer="svg8"
     inkscape:window-maximized="1"
     inkscape:window-y="-9"
     inkscape:window-x="-9"
     inkscape:cy="132.93405"
     inkscape:cx="328.26342"
     inkscape:zoom="0.28299805"
     showgrid="false"
     id="namedview15"
     inkscape:window-height="1001"
     inkscape:window-width="1920"
     inkscape:pageshadow="2"
     inkscape:pageopacity="0"
     guidetolerance="10"
     gridtolerance="10"
     objecttolerance="10"
     borderopacity="1"
     bordercolor="#666666"
     pagecolor="#ffffff" />
  <title
     id="title8745">Vector Playing Cards</title>
  <defs
     id="defs2" />
  <metadata
     id="metadata5">
    <rdf:RDF>
      <cc:Work
         rdf:about="">
        <dc:format>image/svg+xml</dc:format>
        <dc:type
           rdf:resource="http://purl.org/dc/dcmitype/StillImage" />
        <dc:title>Vector Playing Cards</dc:title>
        <dc:creator>
          <cc:Agent>
            <dc:title>Chris Aguilar</dc:title>
          </cc:Agent>
        </dc:creator>
        <dc:rights>
          <cc:Agent>
            <dc:title>Copyright 2011, 017</dc:title>
          </cc:Agent>
        </dc:rights>
        <dc:publisher>
          <cc:Agent>
            <dc:title>Chris Aguilar</dc:title>
          </cc:Agent>
        </dc:publisher>
        <dc:description>Vector Playing Cards</dc:description>
        <dc:contributor>
          <cc:Agent>
            <dc:title>Chris Aguilar</dc:title>
          </cc:Agent>
        </dc:contributor>
        <cc:license
           rdf:resource="https://opensource.org/licenses/lgpl-3.0.html" />
      </cc:Work>
    </rdf:RDF>
  </metadata>
  <g
     id="layer1"
     transform="matrix(1.0966315,0,0,1.0679512,1237.541,-1148.726)">
    <g
       transform="matrix(1.06667,0,0,1.06667,-1904.24,1108.11)"
       id="DIAMOND-2">
      <rect
         ry="10.66401"
         rx="10.677597"
         style="display:inline;fill:#ffffff;fill-opacity:1;stroke:none;stroke-width:1.00057;stroke-miterlimit:4;stroke-dasharray:none;stroke-opacity:1"
         id="rect6486-8"
         width="223.22835"
         height="311.81104"
         x="727.2605"
         y="-30.444927" />
      <path
         id="path6516-8"
         d="m 838.87467,50.24996 c -5.18621,-8.5648 -10.64244,-16.8891 -17.46094,-24 6.8185,-7.1108 12.27473,-15.4351 17.46094,-24 5.18621,8.5649 10.64244,16.8892 17.46094,24 -6.8185,7.1109 -12.27473,15.4352 -17.46094,24 z"
         style="display:inline;opacity:1;fill:#c8102e;fill-opacity:1" />
      <path
         style="display:inline;opacity:1;fill:#c8102e;fill-opacity:1"
         d="m 744.47778,39.528358 c -2.16092,-3.568597 -4.43435,-7.037098 -7.27539,-9.999997 2.84104,-2.962801 5.11447,-6.4313 7.27539,-10 2.16092,3.5687 4.43435,7.037199 7.27539,10 -2.84104,2.962899 -5.11447,6.4314 -7.27539,9.999997 z"
         id="path6518-2" />
      <path
         id="path6522-0"
         d="m 933.27228,231.393 c -2.16092,-3.5686 -4.43435,-7.0371 -7.27539,-10 2.84104,-2.9628 5.11447,-6.4313 7.27539,-10 2.16092,3.5687 4.43435,7.0372 7.27539,10 -2.84104,2.9629 -5.11447,6.4314 -7.27539,10 z"
         style="display:inline;opacity:1;fill:#c8102e;fill-opacity:1" />
      <path
         style="display:inline;opacity:1;fill:#c8102e;fill-opacity:1"
         d="m 838.87467,248.67127 c -5.18621,-8.5648 -10.64245,-16.8891 -17.46094,-24 6.81849,-7.1108 12.27473,-15.4351 17.46094,-24 5.18621,8.5649 10.64244,16.8892 17.46094,24 -6.8185,7.1109 -12.27473,15.4352 -17.46094,24 z"
         id="path6538-6" />
      <path
         d="m 735.08434,16.3221 0.1608,-2.035 c 0.5078,-6.2883 1.859,-8.4097 9.523,-14.9742 3.7208,-3.1822 4.9409,-4.7523 5.1119,-6.5738 0.4873,-4.2965 -3.3145,-5.6374 -5.7907,-5.6571 -3.2091,-0.029 -6.8399,1.9237 -5.1068,6.4625 l -3.6012,1.0777 c -0.7238,-4.2337 0.021,-8.2054 3.3904,-9.968 4.4999,-2.2982 10.27,-1.3972 13.1834,2.2236 1.9581,2.4291 2.4055,5.7906 1.3551,8.4214 -3.0689,6.7204 -13.4791,9.6773 -14.338,17.4532 h 11.5056 V 8.4231 h 3.3904 v 7.9697 l -18.7839,-0.071 z m 0,0"
         id="path15-34-1-4-2"
         style="opacity:1;fill:#c8102e;fill-opacity:1" />
      <path
         d="m 942.66274,234.5992 -0.1608,2.035 c -0.5078,6.2882 -1.859,8.4096 -9.523,14.9742 -3.7208,3.1821 -4.9409,4.7522 -5.1119,6.5738 -0.4873,4.2965 3.3145,5.6374 5.7907,5.6571 3.2091,0.029 6.8399,-1.9237 5.1068,-6.4625 l 3.6012,-1.0777 c 0.7238,4.2336 -0.021,8.2054 -3.3904,9.968 -4.4999,2.2982 -10.27,1.3972 -13.1834,-2.2236 -1.9581,-2.4291 -2.4055,-5.7906 -1.3551,-8.4214 3.0689,-6.7204 13.4791,-9.6773 14.338,-17.4532 h -11.5056 v 4.3293 h -3.3904 v -7.9697 l 18.7839,0.071 z m 0,0"
         id="path15-5-4-6-4"
         style="opacity:1;fill:#c8102e;fill-opacity:1" />
    </g>
  </g>
</svg>
