<?xml version="1.0" encoding="utf-8"?>
<!-- Generator: Adobe Illustrator 16.0.0, SVG Export Plug-In . SVG Version: 6.00 Build 0)  -->
<!DOCTYPE svg PUBLIC "-//W3C//DTD SVG 1.1//EN" "http://www.w3.org/Graphics/SVG/1.1/DTD/svg11.dtd">
<svg version="1.1"
	 id="svg8" xmlns:svg="http://www.w3.org/2000/svg" xmlns:rdf="http://www.w3.org/1999/02/22-rdf-syntax-ns#" xmlns:dc="http://purl.org/dc/elements/1.1/" xmlns:inkscape="http://www.inkscape.org/namespaces/inkscape" xmlns:sodipodi="http://sodipodi.sourceforge.net/DTD/sodipodi-0.dtd" xmlns:cc="http://creativecommons.org/ns#" sodipodi:docname="HEART-11-JACK.svg" inkscape:version="1.1-dev (60faa23, 2020-06-06)"
	 xmlns="http://www.w3.org/2000/svg" xmlns:xlink="http://www.w3.org/1999/xlink" x="0px" y="0px" width="195.84px"
	 height="266.4px" viewBox="0 0 195.84 266.4" enable-background="new 0 0 195.84 266.4" xml:space="preserve">
<sodipodi:namedview  inkscape:current-layer="svg8" inkscape:pageshadow="2" inkscape:window-x="0" inkscape:window-width="774" inkscape:window-height="485" inkscape:pageopacity="0" inkscape:window-y="0" inkscape:window-maximized="0" pagecolor="#ffffff" bordercolor="#666666" guidetolerance="10" borderopacity="1" objecttolerance="10" inkscape:cy="-457.00346" inkscape:cx="235.34191" gridtolerance="10" inkscape:zoom="0.14149939" showgrid="false" id="namedview26">
	</sodipodi:namedview>
<title  id="title8745">Vector Playing Cards</title>
<g id="layer1" transform="matrix(1.0966326,0,0,1.067954,-1606.0211,-384.93616)">
	<g id="HEART-11-JACK" transform="matrix(1.07145,0,0,1.07009,-1863.19,1147.56)">
		<path id="rect10346-5-7" fill="#FFFFFF" d="M3113.756-735.562h150.729c4.403,0,7.972,3.569,7.972,7.973v217.165
			c0,4.403-3.569,7.973-7.972,7.973h-150.729c-4.403,0-7.972-3.569-7.972-7.973v-217.165
			C3105.784-731.993,3109.353-735.562,3113.756-735.562z"/>
		<path id="path10378-7-1" fill="#C8102E" d="M3118.639-683.249c0,0-1.661-2.385-3.902-5.189c-1.499-1.877-2.698-3.908-2.809-5.658
			c-0.128-1.999,1.082-4.004,3.272-4.102c2.188-0.097,3.077,1.542,3.439,2.893c0.362-1.351,1.25-2.99,3.439-2.893
			c2.19,0.097,3.399,2.103,3.272,4.102c-0.111,1.75-1.31,3.781-2.809,5.658C3120.3-685.634,3118.639-683.249,3118.639-683.249
			L3118.639-683.249z"/>
		<path id="path10380-5-9" fill="#C8102E" d="M3259.603-554.764c0,0-1.661,2.385-3.902,5.189c-1.499,1.877-2.697,3.908-2.808,5.658
			c-0.128,1.999,1.081,4.004,3.271,4.102c2.189,0.097,3.077-1.542,3.439-2.893c0.361,1.351,1.25,2.99,3.438,2.893
			c2.19-0.097,3.4-2.103,3.272-4.102c-0.111-1.75-1.31-3.781-2.809-5.658C3261.264-552.379,3259.603-554.764,3259.603-554.764z"/>
		<path id="path35-67-2-8-6" fill="#C8102E" d="M3118.558-725.217v2.582h2.504c0,0,0.061,2.49,0.083,7.77
			c0.02,5.127,0.124,7.67-0.202,9.131c-0.878,3.366-5.748,3.385-6.716,0.965c-0.563-1.407-0.412-2.502-0.438-3.92h-2.693
			c0,0,0.016,0.714,0.02,1.587c0.016,3.785,1.267,5.595,4.196,6.308c3.012,0.814,6.532-0.428,7.785-3.005
			c0.745-1.468,0.66-1.569,0.678-10.447c0.011-5.924,0.101-8.389,0.101-8.389h2.306v-2.582H3118.558L3118.558-725.217z"/>
		<path id="path35-6-7-4-8-8" fill="#C8102E" d="M3259.683-512.796v-2.582h-2.505c0,0-0.062-2.49-0.083-7.77
			c-0.018-5.127-0.123-7.67,0.203-9.131c0.878-3.366,5.748-3.385,6.716-0.965c0.563,1.407,0.414,2.502,0.439,3.92h2.693
			c0,0-0.015-0.714-0.019-1.587c-0.017-3.785-1.268-5.595-4.197-6.308c-3.01-0.814-6.533,0.428-7.784,3.005
			c-0.745,1.468-0.66,1.569-0.678,10.448c-0.011,5.924-0.101,8.389-0.101,8.389h-2.305v2.582H3259.683L3259.683-512.796z"/>
		<g id="g3347-7-8-1" transform="matrix(0.994317,0,0,0.997336,2558.83,-1241.02)">
			<g id="g9405-3-0-4" transform="translate(-1694.06,23.0633)">
				<g id="g3861-4-5-0">
				</g>
			</g>
			<g id="g3498-4-3-9" transform="matrix(0.155159,0,0,0.155159,604.947,621.115)">
				<g id="g2997-9-2-6">
					<g id="g3884-5-1-3">
						<g id="g3000-2-1-2">
							<path id="path2993-7-5-1" fill="#FFCD00" d="M568-562.104l-55.494,36.642l-0.521,42.359
								c-33.133-15.659-47.648-41.539-53.026-71.924c-9.277,11.839-9.818,71.781-9.818,71.781
								c-8.464,4.457-8.788,9.782-14.183,14.988c5.385,8.765,20.557,23.658,20.557,23.658c-0.109-0.265-6.551,61.998,1.695,64.429
								c7.375-26.567,17.264-49.763,54.028-74.24c0,0,1.143,98.781-0.664,194.232c-15.675-10.654-48.802-29.764-70.251-49.391
								c27.447-35.836-1.024-82.16-42.112-51.037c-35.163-41.022-29.938-104.177-45.844-146.671c0,0-88.288-23.86-126.126-21.654
								c32.273,82.655,26.706,183.645-113.884,203.388c-67.23,31.228-144.911,66.051-220.224,130.691
								c-13.38,95.675-62.406,143.025-97.064,169.267c0.476,38.73,0.196,77.078,2.019,116.165
								c-0.031,0.238,31.653-21.066,36.672-17.208c27.6,172.606,125.142,206.285,115.435,211.13
								c-1.563,0.782-31.709,32.133-31.709,32.133l-119.264-77.558c-3.368,119.472-0.287,241.263,2.13,360.911
								c20.905-11.985,59.293-40.574,59.293-40.574l0.347-40.64c-0.203-3.859,54.225,33.537,54.619,78.464
								c4.238,2.847,13.086-64.732,4.623-71.993l22.081-23.053l-24.066-22.897c0,0,5.848-38.276-6.683-60.225
								c-7.74,50.469-49.508,66.438-49.508,66.438s-1.901-184.305-2.985-184.459l74.95,46.828
								c-40.114,55.31,31.167,72.765,39.34,45.917c46.175,42.525,28.799,93.791,49.24,154.377l130.45,23.136
								c-54.292-99.318,3.316-213.195,108.825-205.7c19.711-8.344,37.527-20.328,37.527-20.328s-13.239-21.359-29.916-41.146
								l-225.745-2.395l104.06-197.902l-69.222-1.817C125.15,18.661,128.465,20.8,113.086-67.973l66.93,0.953
								c2.283-27.548-30.677-132.265-76.714-200.602l253.718,0.778L215.371-66.809l76.726,1.751
								c-45.486,82.986-54.094,81.253-37.455,167.589l-68.05,1.749c12.33,101.603,88.495,209.13,115.243,242.056
								c43.828-10.662,125.412-73.866,176.031-113.157c6.191-68.264,29.342-126.484,90.505-170.177l-0.479-112.314
								c0,0-34.915,22.836-34.919,21.268c0.002-24.309-12.973-74.838-36.614-119.804c-25.368-48.258-66.806-91.855-76.293-94.543
								c21.591-33.079,30.861-36.088,30.551-36.605l119.079,75.377L568-562.104z M-30.846-317.044
								c-44.923,11.768-106.007,1.647-118.465,41.398c-2.91,8.99,3.598,12.254,8.382,14.573
								C-114.044-294.856-44.119-248.821-30.846-317.044z M-179.955-181.239c-10.459,1.393-6.798,22.941-3.297,25.565
								C-175.978-157.323-174.034-182.025-179.955-181.239z M202.923-3.429L167.84-3.062l0.033,41.185l35.315-0.23L202.923-3.429z
								 M548.78,199.538c-0.752,4.096-3.826,21.808,4.721,18.56C563.556,210.258,554.142,175.253,548.78,199.538z M516.356,303.112
								c-4.173-6.011-16.906,9.073-27.418,9.693c-46.735,2.777-81.206-3.27-86.741,45.667c26.856-17.371,64.671-9.747,88.972-15.457
								C508.723,337.074,528.809,321.024,516.356,303.112z"/>
							<path id="path3504-0-2-5" fill="#004C97" d="M-215.531-617.817l7.526,1275.397l793.691-4.684L578.16-622.5L-215.531-617.817z
								 M17.157-608.814l399.77-1.072c-11.97,34.822-44.007,58.685-60.499,93.203c-3.858,5.457-3.639,9.669-1.805,15.495
								c3.426,10.908,7.601,29.035,9.223,40.098c2.73,24.332,5.452,54.671,18.9,81.375c1.83,6.18,13.91,20.93,16.776,20.93
								c17.31-24.483,62.575-9.873,49.802,32.315c-4.951,16.359-13.238,16.214-9.632,19.269l72.154,48.601
								c0,0,0.93-192.936-0.987-192.87c-37.47,22.647-38.971,35.738-54.33,71.365c-9.846-13.328,1.187-46.223-0.662-63.861
								l-21.829-23.6c-0.097-0.066,16.891-18.781,16.891-18.781s5.374-69.877,7.141-68.927c3.576,24.42,27.241,63.472,54.342,72.059
								l0.367-42.866l57.06-36.944l-0.012,354.037l-5.626,6.085l0.09,15.318c0,0-42.749-27.486-43.763-29.457
								c-0.501-4.536-11.965-13.685-14.965-9.045l-12.865-9.152c1.893-0.508-13.322-21.69-15.389-15.084
								c-0.444,1.394,0.078,5.919,0.078,5.919l-12.564-9.225c0,0-1.235-2.897-1.651-4.077c-1.085-3.086-3.625-6.335-5.601-8.874
								c-4.731-5.544-9.311-5.81-6.024,2.576l-7.668-4.919l-4.529,5.781l14.308,9.011l0.063,10.613l-17.714-12.895
								c-4.805,0.045-5.351,0.7-4.345,4.94l22.093,13.653l0.069,11.624c-9.16-5.689-27.515-17.653-27.515-17.653l-2.228,3.089
								c54.946,47.625,100.52,129.351,109.632,212.688c13.654-6.878,34.889-27.287,32.59-15.103
								c0.017,2.894,3.655,5.898,3.655,5.898l4.741,181.731c-35.967,32.738-55.935,58.678-97.939,90.756
								c-56.76,45.833-137.435,94.093-214.276,129.535c-21.939,1.416-41.439-4.471-79.921,23.632
								c-43.471,27.647-56.746,75.951-48.763,128.343c4.074,18.939,11.53,45.43,14.44,48.698c0.849,0.95,2.818-0.889,3.119-0.891
								c0.302,0.004-0.587-1.316-0.587-1.316c-4.082-8.828-20.82-52.101-16.752-84.563c1.482-11.269,1.742-27.434,14.219-31.086
								c4.894-1.432,9.043,0.56,11.444,3.964c4.728,6.008,1.626,13.15-1.269,19.159c16.052-6.832,7.377-37.164-15.394-29.674
								c0,0,1.049-3.071,1.878-4.451c11.307-24.326,41.304-57.15,78.88-66.766c12.351-3.16,26.781-4.383,40.082-1.739
								c6.656,1.319,6.522,4.186,6.165,13.968c-0.357,9.859,3.32,12.074,7.3,16.402c8.155,8.876-14.836,12.005-27.848,4.372
								c-3.135-1.842-4.999-2.627-4.999-2.627s0.956,2.297,3.321,6.751c3.726,7.013,6.466,12.945,9.592,11.374
								c4.109-2.94,0.832-5.129,12.128-1.64c3.912,1.059,9.744,2.427,12.144,2.899c5.172,1.024,5.026,2.643,3.778,6.687
								c-3.436,11.12-0.455,14.261,16.303,23.881c14.131,7.361,12.953,7.566,2.766,30.549
								c-5.316,11.998-11.213,26.164-16.965,39.236c-2.318,5.309-1.502,8.342,2.001,14.109c3.4,5.602,5.932,22.96,5.089,24.323
								c20.363,25.326,37.157,55.821,58.614,86.641l-398.739,0.006c0,0,40.322-61.458,60.962-90.118
								c3.846-3.347,4.321-7.707,2.787-12.072c-0.375-1.069-12.528-80.689-12.682-80.887c-4.759-23.541-10.927-50.028-33.557-66.124
								c-8.511,9.731-30.124,15.778-42.012,3.302c-3.751-3.932-7.674-9.127-8.445-17.378c-1.653-11.189,2.346-25.538,3.302-27.034
								c1.543-2.411,5.072-4.608,5.003-6.314c-0.136-3.351-6.305-6.269-15.162-10.933C-104.145,327.217-141.132,302-141.132,302
								s-0.456,133.116,0.947,186.061c35.757-15.292,52.105-65.531,52.105-65.531c9.171,11.333,2.584,45.886,3.267,57.473
								c7.894,9.457,15.195,12.291,22.7,22.496c-3.921,9.786-11.585,16.127-19.46,22.646c4.086,20.419,5.773,42.504-2.924,65.583
								c-13.887-40.374-24.386-53.411-55.448-72.489c1.229,15.637-1.233,27.911,0.003,41.632l-59.99,42.03l-7.175-366.845
								l124.058,83.797l1.681-3.218l-118.929-82.005l-0.074-12.474l11.552,7.055c0,0,1.199,8.707,4.479,10.819
								c2.85,1.833,11.225,0.055,10.164-0.336l19.288,12.952c-2.377,4.824,12.96,24.834,15.451,10.55l15.03,9.415
								c1.789,4.258,1.369,11.467,9.849,15.702c3.193,1.124,7.216,0.46,5.592-4.086l11.29,6.599
								c2.111,7.686,13.645,23.058,15.672,16.055c0.238-0.813-0.361-5.41-0.361-5.41l7.956,5.696c0,0,7.983-1.941,4.347-5.537
								l-13.418-8.442l0.076-9.477l17.339,11.831c0,0,4.122-3.139,3.556-5.372l-21.014-14.261l0.403-9.302
								c8.606,4.461,17.483,10.257,26.372,16.085c0.046,0.022,1.454-2.775,1.49-2.753
								c-62.471-50.176-100.505-134.475-112.442-207.393c-10.01,5.918-26.911,16.195-37.352,17.881l-1.01-195.41
								c34.525-37.86,69.304-67.366,113.119-100.223C-31.917-256.1,36.444-289.697,92.07-316.654
								c9.646-3.232,18.693-8.294,28.76-9.166c14.711-0.777,18.135-0.731,43.043-11.304c65.013-32.164,107.338-81.12,60.279-191.597
								c2.016,7.459,13.102,37.496,15.842,64.384c2.264,22.203-1.951,41.909-5.496,47.226c-8.151,10.132-20.095,9.098-19.823-5.146
								c0.073-4.032,3.145-11.102,3.145-11.102c-11.568-1.191-18.735,38.672,13.641,27.431
								c-14.53,39.25-76.933,74.496-105.015,76.755c-14.616,2.295-21.601-1.468-22.168-12.189
								c-0.316-5.99-3.659-18.036-6.937-21.639c-7.96-8.755,13.511-12.339,26.413-4.32c4.191,2.604,5.256,1.973,2.955-1.746
								c-0.873-1.414-3.686-5.202-3.799-7.052c-0.263-4.333-0.411-5.763-6.315-3.784c-3.508,1.169-5.549-0.542-8.288-1.762
								c-2.412-1.074-6.671-2.015-12.015-2.442c-9.99-0.802-9.473,2.453-7.757-8.077c1.716-10.525-0.492-12.201-12.632-19.872
								c-19.655-11.834-18.59-8.455,0.815-47.165c13.237-26.408,13.811-29.051,8.459-41.798c-4.355-10.373-8.177-20.02,2.874-21.51
								c-23.125-7.363-45.441-65.535-70.886-86.287L17.157-608.814z M-204.33-606.684l215.625-1.272
								c19.058,25.56,65.333,89.55,65.333,89.55c-0.115-0.264-0.86,9.984,4.053,18.586c3.762,6.588,3.173,14.19-2.9,25.756
								c-4.017,7.644-8.763,19.065-13.794,29.703c-11.076,18.311-10.893,23.313-3.229,28.817
								c6.932,4.857,20.369,10.936,24.326,14.551c2.559,2.343-0.286,8.6-1.047,12.984c-0.584,2.35-2.19,8.18,0.296,10.888
								c3.833,4.169,4.638,5.407,2.865,9.967c-1.083,2.784,4.516,6.263,5.451,8.102c3.696,5.059,4.821,8.984,5.59,11.994
								c0.786,3.088,0.301,5.758,0.301,5.758c-19.916-8.011-55.312-1.507-47.613,39.301
								c-61.916,31.202-111.788,65.607-143.074,88.063c-10.553-34.12-28.39-41.835-45.73-44.19c-0.877-1.26,0.652-3.583,2.957-6.053
								c7.74-7.976,26.098-9.774,38.57-9.251c41.819,0.002,56.571-7.574,67.341-34.807c3.695-9.343,2.18-21.318,2.18-21.318
								s-3.111,4.099-4.837,5.645c-10.179,9.128-28.514,11.158-43.195,11.498c-25.635,0.085-38.995,2.837-47.04,6.667
								c-16.208,7.722-28.589,19.01-30.333,29.287c-0.63,3.72-1.131,3.723-8.734,3c-8.174-0.775-12.644,4.178-13.948,12.331
								c-0.582,3.642,0.519,3.912-5.207,5.939c-8.263,2.926-11.084,11.403-7.963,20.043c1.21,3.35,1.053,4.025-2.649,6.598
								c-5.794,4.032-6.909,9.147-4.709,15.402c0.89,2.529,1.519,3.183-0.604,6.216c-5.444,7.769,1.152,19.973,8.706,22.833
								c-3.797,25.231-1.999,26.474-1.936,29.368c0.475,2.852,3.162,4.046,6.06,3.935c8.501-0.442,7.174-7.183,8.55-14.083
								l10.104,11.813l-36.877,35.521L-204.33-606.684z M428.291-610.417l137.156-0.809l0.269,45.595l-56.662,36.787l0.228,38.599
								c-40.88-25.835-43.559-54.353-48.001-73.997c-57.21,61.673-41.195,152.779,0.099,194.835
								c-1.384-1.759,7.034-58.677,48.152-78.418l1.076,182.272l-67.235-44.902c30.016-34.117-6.726-88.94-45.383-52.155
								c-29.153-28.715-26.756-89.827-40.856-139.367c-1.547-5.58,0.395-10.627,8.213-21.37
								C386.184-552.008,407.225-583.399,428.291-610.417z M451.79-544.819c0,0-3.708,10.68-2.125,57.947l-20.471,16.544
								C430.362-516.921,451.79-544.819,451.79-544.819z M93.784-510.13c-6.321-0.267,0.758,9.361,6.024,11.655
								c26.411,1.683,43.1-2.96,70.495,21.336c7.717,5.383,7.192-0.446-0.434-8.281c-13.702-14.078-35.173-23.687-56.663-23.654
								c-6.314,0.01-16.089-0.435-17.969-0.86C94.692-510.042,94.207-510.111,93.784-510.13L93.784-510.13z M101.36-486.131
								c-1.961,0-5.783-3.092-5.964-2.781c-0.234,5.071,7.437,15.479,9.384,18.085c0.172,1.402-0.068,3.971-0.066,8.069
								c-0.736,1.766-11.68,1.825-7.786,6.656c1.273,1.583,5.911,1.081,9.862,1.505c7.039,0.925,22.273,14.889,32.74,16.644
								c3.055,0.512,6.038,0.219,6.038,0.219c-7.532-3.241-15.319-6.498-21.82-12.136c-4.908-4.632,6.136-4.609,9.54-5.192
								c4.439-0.551,9.834-2.792,12.074-3.854c6.388-3.02,4.024-3.718,10.691-1.399c3.784,1.314,7.643,3.356,9.628,3.737
								c9.277,1.795,6.066-5.006-8.536-11.855c-2.077-0.976-5.56-4.164-8.448-6.025c-11.616-7.48-19.059-10.208-28.114-9.603
								c-5.536,0.369-8.74,0.223-8.74,0.223c6.342-3.042,12.694-3.852,20.573-2.966c13.515,2.433,26.949,13.553,39.496,21.243
								C154.006-489.115,118.631-499.553,101.36-486.131z M126.536-472.215c1.165,0.203,2.038,1.148,2.038,2.97
								c0.007,1.204-5.195,8.8-6.752,9.803c-2.71,1.739-2.579-2.044-0.867-8.206C121.833-470.812,124.592-472.546,126.536-472.215z
								 M133.375-470.019c8.7,1.208,14.061,6.886,7.259,9.455c-3.728,1.403-13.582,3.129-13.521,1.659
								C127.193-460.881,131.385-470.294,133.375-470.019z M429.446-466.829l24.147,23.062c-1.301,5.933-3.409,28.554-3.471,50.881
								C438.524-410.119,429.305-432.165,429.446-466.829z M103.225-437.166c-1.438,0.069-3.547,1.059-3.547,1.059
								s1.596,1.156,4.093,2.488c14.754,7.898,8.643,22.723-7.581,12.531c-11.328-7.117-19.871-8.58-21.346-0.222
								c-0.615,3.466-0.415,6.386,4.888,4.925c2.103-0.576,7.839,2.273,12.584,3.973c6.249,2.238,18.781,7.532,23.854-6.182
								C118.153-427.137,110.883-437.525,103.225-437.166L103.225-437.166z M146.597-412.306c-2.341-0.074-5.37,1.153-5.37,1.153
								s2.938,1.247,5.181,1.576c16.025,2.346,15.182,29.222-20.705,10.67c-11.921-6.164-18.135-3.863-24.522,1.614
								c-4.879,4.408-2.132,7.048,5.911,6.167c10.216-1.038,17.521,3.089,27.218,5.776
								C164.177-378.288,171.747-411.505,146.597-412.306z M79.839-339.344c7.782,0.037,16.546,3.464,25.047,11.637l-4.429,2.6
								c-7.017-2.261-11.09-4.093-17.886-6.466c1.776,5.252,1.619,8.616,1.619,8.616s-7.806-2.709-15.306-3.692
								c2.66,5.241,4.654,10.409,4.654,10.409s-5.005-0.07-11.742-0.091l4.098,6.586l-10.021,4.864
								C50.332-323.106,62.715-339.426,79.839-339.344L79.839-339.344z M-32.9-316.8c1.711,17.065-12.763,40.167-63.722,40.009
								c-19.762-0.314-30.685,0.264-45.552,16.427l-9.159-7.335c2.774-10.967,7.432-30.124,48.051-39.442
								C-79.732-310.841-57.595-304.362-32.9-316.8L-32.9-316.8z M-161.387-268.396c1.773,0.028,3.753,0.558,5.861,1.749
								c9.205,5.694,10.644,10.275,1.469,15.271c-5.225,2.847-6.342,3.401-11.195-0.95
								C-172.783-259.084-169.068-268.505-161.387-268.396z M105.615-267.205c19.469,34.51,66.052,117.936,76.162,200.119
								l8.68-0.311L332.084-265.36L105.615-267.205z M-137.598-252.985c5.016-0.013,10.73,1.168,15.82,3.745
								c4.805,2.639,9.567,7.145,13.498,12.428c5.278,7.093,9.065,15.586,9.471,22.829c0.108,1.932,0.27,3.345-0.682,4.952
								c-5.69,5.765-19.774,17.368-26.906,22.109c-7.916-6.679-11.878-22.692-0.154-35.673c5.564-4.34,7.326-6.134-2.234-5.586
								c-7.044,0.406-7.611,0.741-7.242-3.812c0.887-10.873-1.515-6.988-5.707-0.303c-2.973,4.744-10.152,7.283-12.865,7.293
								c-3.736,0.016-3.308-2.781,0.214-4.872c5.181-3.079,5.587-8.151,3.682-14.197
								C-152.377-249.662-145.959-252.975-137.598-252.985L-137.598-252.985z M-175.09-249.694
								c8.371-0.651,14.435,6.387,6.867,11.589c-6.066,4.177-5.327,7.475,1.037,12.75c3.335,2.764,5.385,4.231,5.096,4.984
								c-1.168,4.745-13.267-7.923-19.925-12.296c-4.869-5.251-4.893-13.451,3.233-16.254
								C-177.523-249.354-176.286-249.604-175.09-249.694L-175.09-249.694z M465.633-245.821l16.01,10.839l0.053,9.012
								l-16.001-9.199L465.633-245.821z M-156.523-240.592c4.593-0.469,3.567,6.882-2.629,10.088
								c-3.615,1.866-6.431,0.706-6.431-2.563c-0.01-1.684,3.817-5.423,6.74-6.81C-157.954-240.302-157.177-240.528-156.523-240.592
								L-156.523-240.592z M-183.317-225.524c7.699,0.579,17.978,8.691,16.415,12.201c-0.713,1.605-5.3,5.669-4.491,8.172
								c1.333,4.128-1.826,4.147-8.44-0.188c-10.963-7.191-13.798-12.47-9.781-17.801c1.459-1.93,3.732-2.579,6.3-2.384H-183.317z
								 M465.461-229.32l16.282,11.202l0.064,10.818l-16.533-10.825L465.461-229.32z M493.974-226.87l16.151,9.928l1.341,10.86
								l-17.154-10.203L493.974-226.87z M445.532-224.967c5.306,2.719,9.741,3.72,13.562,10.462
								c2.035,1.623,4.199,3.062,4.199,3.062l3.962-0.449l16.018,10.238c0,0,0.45,4.133,3.302,8.231
								c2.744,3.943,8.701,6.448,8.701,6.448c1.27-0.261,0.925-3.992,0.502-6.254l19.623,13.159
								c0.108,0.077,3.481,11.118,3.481,11.118l11.483,6.918c0,0-1.025-6.654-1.389-8.988l17.048,11.38c0,0,0.569,1.493,3.082,7.404
								c3.328,8.822,12.073,14.596,12.279,6.554l3.146-0.008l0.074,12.585l-89.459-58.936c0,0-5.529-4.888-11.088-11.995
								C458.022-211.748,445.532-224.967,445.532-224.967L445.532-224.967z M-152.341-219.903c5.687-0.326,6.684,0.612,3.76,3.534
								c-3.005,3.005-9.207,1.374-8.692-2.274C-157.042-220.29-155.934-219.699-152.341-219.903z M-139.31-219.974
								c1.836-0.254,3.437,1.863,2.692,5.17c-3.001,9.085-2.154,23.007,6.166,30.988l-26.546,23.748
								c-2.004,1.011-4.816,0.122-7.885-2.323c-9.031-7.208-12.406-13.986-4.619-13.591c5.039,0.257,11.422-4.806,9.567-10.737
								c-1.117-3.577-0.421-6.05,3.476-7.078c3.853-1.657,6.603-7.671,5.296-12.269c-1.067-3.323-0.567-4.337,1.846-4.048
								c2.555,0.305,5.213-2.179,6.903-6.574C-141.598-218.807-140.411-219.819-139.31-219.974L-139.31-219.974z M-161.12-209.309
								c1.525,0.09,3.2,0.947,4.807,2.954c3.39,6.64-5.464,9.845-8.995,6.779C-168.958-202.929-165.695-209.575-161.12-209.309
								L-161.12-209.309z M494.443-210.444l17.479,11.356l2.144,11.888l-18.867-10.983L494.443-210.444z M-188.255-204.146
								c1.51-0.13,3.221,0.312,4.949,1.55c1.401,1.008,5.244,4.044,7.409,5.335c4.617,2.761,5.346,4.895,1.323,5.161
								c-1.839,0.116-4.486,3.08-4.209,5.26c-2.247,2.156-8.58-1.043-12.892-6.473c-3.862-4.864-1.112-10.436,3.416-10.833H-188.255
								z M523.905-207.796l17.766,11.646l1.582,11.51l-17.878-10.481L523.905-207.796z M-168.998-188.676
								c0.442,0.019,0.879,0.122,1.3,0.34c3.606,1.746,4.939,4.449,1.516,6.264c-2.971,1.812-4.836,1.652-6.722-0.236
								C-175.378-184.38-172.11-188.779-168.998-188.676L-168.998-188.676z M525.182-189.514l19.666,13.115l0.46,10.346
								l-17.63-9.621L525.182-189.514z M-181.281-182.219c7.905,4.89,5.056,28.228-0.297,28.176
								C-189.5-160.032-188.787-176.222-181.281-182.219z M556.244-186.058l8.079,5.127l0.062,10.426l-7.666-4.478L556.244-186.058z
								 M479.956-183.063l84.683,55.618l0.061,10.221l-75.18-50.184L479.956-183.063z M557.525-168.118l6.898,4.09l0.065,11.061
								l-6.404-4.303L557.525-168.118z M497.265-154.846l67.475,44.592l0.067,11.431l-58.843-38.828L497.265-154.846z
								 M510.61-127.386l54.235,34.912l0.069,11.762l-47.646-31.157L510.61-127.386z M519.504-104.548l45.443,29.469l0.066,11.215
								L524.39-90.921L519.504-104.548z M526.833-83.32l38.217,25.486l0.023,3.954l-4.705,3.346l-30.836-19.88L526.833-83.32z
								 M531.19-64.25l24.975,16.298l-7.774,5.397l-14.748-11.41L531.19-64.25z M121.043-55.661c0.5,5.304-1.263,17.817,1.55,22.505
								l7.828-12.654l9.721-0.057c-4.333,10.231-15.339,33.158-15.339,33.158l39.38-0.232c0,0,9.881-21.728,16.095-31.45
								l9.247-0.082l-14.419,31.468l37.128-0.219l16.432-31.844l11.895-0.07l-14.843,31.835l27.011-0.159l5.356-12.545
								l-12.315,0.073l13.794-30.542l-39.875,0.235L204.042-25.69l-9.287,0.055l15.788-30.554l-39.189,0.231l-16.084,30.556
								l-11.846,0.07l14.74-30.548L121.043-55.661z M535.112-46.033l9.19,6.23l-7.495,4.462
								C536.318-38.938,536.032-42.51,535.112-46.033z M118.799,51.23l-6.786,11.687l13.834-0.082
								c-4.472,10.425-14.252,30.086-14.252,30.086l38.079-0.225l16.415-30.099l13.247-0.078L164.407,92.61l34.836-0.206
								l16.426-30.099l11.992-0.071l-14.53,30.088l37.193-0.219l-2.04-27.036l-7.6,14.911l-8.77,0.052l12.992-29.543l-37.441,0.221
								l-14.889,29.555l-9.274,0.055l13.905-29.549l-40.258,0.238L141.957,80.56l-10.968,0.065l13.65-29.548L118.799,51.23z
								 M-170.032,76.575l0.604,4.287l-4.962-1.937L-170.032,76.575z M-179.819,81.984l12.239,7.537l1.729,9.565l-20.801-13.352
								L-179.819,81.984z M-192.164,88.352l28.223,18.913l2.523,11.317l-39.717-25.35L-192.164,88.352z M-201.095,99.913
								l42.23,29.102l4.294,12.405c0,0-35.629-22.779-46.471-32.373L-201.095,99.913z M183.292,102.626L42.762,301.676
								l224.157,0.754C229.434,242.094,200.579,175.467,183.292,102.626L183.292,102.626z M-201.001,115.806l49.239,33.953
								l6.91,13.826l-56.086-37.242L-201.001,115.806z M-200.901,132.725c0,0,40.594,30.238,60.267,39.968
								c2.31,4.393,9.862,17.911,9.862,17.911l-70.069-47.801L-200.901,132.725z M-200.801,149.683l73.519,50.006l13.924,19.649
								l-87.378-58.6L-200.801,149.683z M569.972,155.528l2.874,486.99l-209.613,1.237c-20.464-29.733-39.806-58.207-62.266-91.125
								c-4.063-5.531-3.739-12.767-6.888-18.801c-2.534-3.934-3.252-12.401-0.104-17.544c8.456-18.566,18.096-35.659,23.915-55.485
								c2.567-8.746-15.205-14.986-24.279-20.736c-7.042-4.608-6.884-7.072-4.35-16.856c2.367-6.955,2.579-10.325-1.847-12.663
								c-2.486-1.316-2.55-1.189-1.924-4.738c0.636-3.593-0.198-6.068-4.589-9.786c-0.698-0.592-4.276-4.271-5.896-8.69
								c-0.986-2.695-1.676-9.268,3.439-8.834c29.222,11.203,50.334-6.3,43.861-36.871c0,0,97.156-56.491,140.999-91.905
								c6.022,26.228,21.034,46.903,47.674,47.713c-12.664,14.041-32.905,13.84-50.927,13.637
								c-41.889-0.46-59.178,17.661-61.609,56.597c11.27-16.501,36.805-18.534,61.931-17.689
								c24.113,0.807,57.546-7.452,65.583-39.578c11.651,4.222,20.152,4.194,24.6-10.742c0.834-1.987,2.27-4.299,3.603-4.82
								c10.363-4.098,11.426-12.04,8.408-21.343c-0.802-2.685-0.748-3.447,2.843-8.499c2.474-3.483,3.092-10.941,0.793-16.218
								c-0.972-2.247-1.015-4.925-0.739-8.329c0.491-6.21-0.948-10.868-5.058-16.338c-3.372-4.486-3.62-4.59-1.856-12.403
								c2.163-9.55,2.762-21.266,0.564-23.053c-3.145-2.538-12.593-3.256-12.877-0.305c-0.941,1.154-0.585,10.429-0.895,10.868
								c-2.004-1.871-11.242-8.068-11.027-8.036L569.972,155.528z M-200.704,166.106c29.134,19.051,59.523,42.739,94.547,63.876
								l11.922,14.127l-10.984-1.266c-0.237-0.026-6.292-0.753-9.775-9.474c-2.748-6.876-13.371-14.577-17.491-8.876l-10.559-6.333
								c0,0-1.757-2.823-3.095-5.482c-5.519-10.979-17.536-20.174-17.537-13.437c0.005,0.884-0.143,4.054-0.143,4.054l-11.217-6.108
								c0,0-1.682-3.922-2.455-5.679c-3.099-7.05-12.743-15.818-13.791-12.68c-0.558,1.677-1.247,4.574-1.247,4.574l-8.097-4.144
								L-200.704,166.106z M-200.588,185.836l10.848,6.982l0.546,9.445l-11.335-6.394L-200.588,185.836z M530.074,194.783
								c8.369,4.015,15.123,11.022,14.705,15.193c-0.244,2.486-2.039,3.259-5.182,3.769c-7.68,1.233-8.07,3.753-7.949,9.595
								c0.093,4.837,0.069,4.423-4.116,7.22c-5.221,3.504-6.408,4.146-5.747,12.034c0.435,5.227,0.082,4.859-2.81,5.809
								c-6.78,1.36-7.374,2.976-8.393,7.416c-0.769,4.754-3.804,5.346-3.116,1.393c3.071-9.064,5.963-21.185-5.498-37.027
								C501.967,220.186,520.099,202.563,530.074,194.783z M551.95,190.85c11.447,6.145,2.95,28.792-0.785,28.516
								C545.026,212.637,548.404,197.983,551.95,190.85z M-174.419,203.58l16.176,10.557l-0.008,9.609l-16.444-10.765
								L-174.419,203.58z M-200.481,203.976l10.627,7.321l-0.104,9.245l-10.457-5.483L-200.481,203.976z M-174.787,221.12
								l17.514,11.372l0.014,10.078l-17.707-11.227L-174.787,221.12z M541.815,218.957c4.772-0.194,8.064,4.387,4.745,8.051
								c-0.824,0.916-1.869,0.978-3.593,0.96c-7.747-0.087-10.176-6.335-3.272-8.618
								C540.426,219.114,541.137,218.989,541.815,218.957L541.815,218.957z M-142.641,224.277l16.801,11.492l0.102,9.492
								l-16.736-10.603L-142.641,224.277z M497.928,223.142c7.823,11.904,10.463,19.31,1.83,35.326
								c-3.208,4.199-3.516,4.958-0.205,5.485c3.92,0.629,8.318,5.39,7.714,7.26c0.013,2.231,1.612,1.095,7.042-3.521
								c6.584-6.202,9.98-7.702,9.094-3.665c-2.165,7.38-6.639,7.953-4.674,15.832c0.482,6.845,2.914,6.339-3.625,9.288
								c-14.991,6.748-31.098-3.091-41.615-25.157c-4.211-8.838-5.756-13.203-3.154-17.73c6.953-7.573,27.417-22.593,27.587-23.119
								H497.928z M554.677,225.673c3.914,0.551,6.583,10.84,6.146,13.488c-0.479,2.869-12.405-4.157-12.403-7.514
								C548.404,229.057,552.224,225.329,554.677,225.673L554.677,225.673z M532.495,235.38c1.326,0.092,2.757,0.619,4.137,1.704
								c3.605,2.834,3.103,7.288-1.154,8.909c-4.139,1.576-6.577,1.116-8.041-2.427C525.469,238.818,528.507,235.105,532.495,235.38
								L532.495,235.38z M544.822,238.234c1.078,0.115,2.804,1.336,5.086,2.808c11.832,7.568,14.661,13.951,8.964,19.998
								c-3.223,3.41-2.912,3.088-8.86-0.632c-11.69-7.309-13.505-8.121-9.449-12.717c1.263-1.427,3.226-3.824,3.048-5.623
								C543.313,239.115,543.744,238.119,544.822,238.234z M-142.659,242.727l16.379,10.749l-0.101,9.902l-16.445-9.622
								L-142.659,242.727z M-111.537,245.824l12.629,7.535l0.064,10.773l-12.634-8.43L-111.537,245.824z M530.655,254.106
								c0.98-0.105,4.471,1.746,9.94,5.508c18.137,12.462,22.876,24.914,11.342,29.51c-4.859,1.939-10.548-3.632-13.877-8.152
								c-2.113-2.876,0.085-6.589,2.178-9.749c2.51-3.797,1.583-5.648-4.363-10.864
								C531.229,256.278,529.676,254.211,530.655,254.106L530.655,254.106z M518.655,254.569c0.84-0.088,1.831-0.072,2.969,0.071
								c0.718,0.3,2.629,0.957,0.564,3.432c-0.428,0.505-6.211,2.798-6.9-0.699C515.022,255.998,516.157,254.832,518.655,254.569
								L518.655,254.569z M-111.428,264.339l12.631,7.878l0.062,10.453l-12.629-7.452L-111.428,264.339z M532.958,266.296
								c1.574,0.223,2.609,1.238,2.411,3.133c0.013,2.187-2.118,7.131-4.602,8.901c-6.116,4.354-11.372-0.767-6.992-7.082
								C526.216,267.739,530.337,265.92,532.958,266.296z M531.284,285.783c0.938,0.11,1.889,0.635,3.521,1.465
								c10.44,5.312,13.941,12.624,6.855,18.647c-5.21,4.427-13.316,3.027-20.802-4.82c-6.207-6.502-5.6-6.765,3.022-11.902
								C528.261,286.569,529.737,285.599,531.284,285.783z M511.484,301.086c0,0,3.238,1.002,8.255,7.655
								c6.451,8.538-4.848,16.535-16.061,29.042c-24.11,16.195-67.166,0.457-100.478,20.224c0.609-32,21.096-45.782,64.611-44.543
								C493.934,316.818,511.843,301.553,511.484,301.086z M-138.382,305.131l64.357,43.754c-0.231,0.073-9.363,9.692-8.83,26.89
								c0.647,22.378,26.757,46.643,53.07,25.559c7.796-3.509,20.038,18.751,26.508,35.998
								c8.614,20.972,6.954,59.213,19.777,105.093l-68.776,103.782l-144.655,0.854l-0.25-42.365l60.31-43.589l-0.213-36.076
								c36.856,18.1,47.392,53.778,49.205,84.007c39.455-49.646,58.802-136.537-5.256-207.44
								c-1.654,33.309-12.093,59.159-44.206,79.814L-138.382,305.131z M317.416,343.819c11.118,30.881-30.346,44.931-46.031,21.637
								l6.762-2.542c0,0,8.288,4.032,13.305,5.14c-1.76-2.513-2.262-7.138-2.262-7.138s9.979,2.034,15.483,1.736
								c-1.697-2.806-4.029-5.355-4.1-8.298c4.242-0.489,9.224,0.26,13.811-0.402c-3.39-2.968-4.504-1.829-4.55-6.048
								L317.416,343.819z M229.459,418.011c-1.999-0.027-3.921,0.178-5.728,0.674c-15.262,2.862-17.182,18.861-8.923,27.123
								c5.309,5.005,14.747,4.811,21.414,0.851c-6.432,0.165-10.844,1.019-16.362-2.825c-10.253-10.128,2.003-23.862,17.303-15.714
								c18.572,9.543,27.317,11.579,33.44,8.456c5.237-2.671,5.905-9.964,0.858-8.852
								C261.259,429.608,243.435,418.221,229.459,418.011L229.459,418.011z M-80.327,425.963
								c14.126,21.934,23.6,53.647,22.492,73.065l-23.723-19.552C-78.297,463.116-79.622,442.675-80.327,425.963z M269.809,445.207
								c-4.408-0.25-8.096,1.064-10.816,3.891c-5.889,6.264-3.375,25.212,11.449,21.21c0,0-7.223-2.481-8.886-6.773
								c-3.255-8.424,7.638-16.645,17.77-5.02c7.659,8.796,19.704,6.82,20.477-0.927c0.346-3.52-1.388-6.022-5.865-4.339
								c-2.677,0.999-5.087-0.213-9.018-2.603C279.335,447.255,274.212,445.452,269.809,445.207z M233.218,474.454
								c-5.978,0.267-4.026,1.498,4.024,4.482c12.396,4.599,20.724,8.012,18.199,10.203c0.522-0.042-21.727,0.012-32.266,7.099
								c-2.145-0.125-5.513-1.276-8.841-2.852c-10.783-5.1-14.952,0.491-5.367,7.028c19.635,13.38,35.577,19.908,48.605,18.445
								c8.528-0.956,13.212-1.42,8.135,1.879c-24.525,10.632-44.52-7.154-61.058-18.018c-2.969-1.954-4.206-2.543-4.206-2.543
								s1.644,2.901,3.702,4.667c18.637,15.965,37.688,27.069,63.126,19.729c4.326-1.776,4.48-3.185,6.073-2.46
								c7.409,6.588,5.083-3.995-0.111-9.658c-3.088-3.731-3.48-3.657-4.198-10.296c-0.467-4.244-0.798-4.689,2.979-6.468
								c8.3-3.909,3.345-4.581-1.511-4.933c-2.949-0.397-7.953-3.885-17.881-10.182
								C246.668,476.776,238.437,474.218,233.218,474.454L233.218,474.454z M248.075,494.368l-5.597,10.133
								c0,0-9.265-1.547-11.94-3.966c-0.834-0.757,0.039-1.613,1.731-2.446C237.741,495.98,242.191,494.181,248.075,494.368
								L248.075,494.368z M252.99,496.448c0.926-0.077,1.737,0.459,1.994,2.004c-0.283,1.338-2.394,6.122-3.799,8.002
								c-1.197,1.592-2.461,1.02-3.758,0.332c-2.745-1.447,0.559-5.763,2.922-8.693C251.045,497.216,252.069,496.531,252.99,496.448
								z M-58.507,505.957c4.377,18.192-12.414,66.776-18.67,70.226c0.337-0.002,3.762-33.498-1.594-50.066L-58.507,505.957z
								 M194.066,507.818c-0.798-0.128-0.333,1.018,1.243,3.406c12.834,19.39,31.966,33.348,61.324,34.732
								c8.854,0.423,22.957,1.195,24.652,1.732c4.151,1.306,4.34,2.36,4.88,0.661c3.083-9.715-9.211-17.959-31.893-14.589
								c-15.997,2.375-34.286-6.618-53.856-21.727C196.931,509.348,194.87,507.946,194.066,507.818z"/>
							<path id="path3502-5-8-1" fill="#C8102E" d="M133.484,645.426l6.11-30.508l56.153,2.397c0,0,6.631,19.09,9.322,27.689
								L133.484,645.426z M3.842,645.451l29.492-49.361l42.362,11.225l-9.505,38.508L3.842,645.451z M86.113,645.705l12.503-52.579
								c-24.225-5.186-47.071-8.552-73.815-15.601l-42.943,68.74l-26.086-0.542c22.293-30.068,62.973-90.76,62.973-90.76
								c94.318,31.826,189.247,36.727,284.687,19.062c0,0,35.473,46.227,48.239,71.333l-24.831-1.074l-31.146-51.466
								c-21.465,2.457-42.571,5.442-64.97,6.508l15.611,45.433l-24.651,0.146l-14.253-45.314
								c-26.888-0.879-49.464,1.352-81.706-3.499l-11.068,49.423L86.113,645.705z M263.745,644.679l-8.681-32.243l30.276-3.713
								c0,0,14.195,24.534,21.954,35.677L263.745,644.679z M-9.895,346.281c37.342-57.497,169.178-241.873,169.178-241.873
								l19.783-0.266c0,0-118.317,167.443-175.226,251.385L-9.895,346.281z M-202.574,258.322l46.599,33.135l1.869,260.137
								l-46.96,33.466L-202.574,258.322z M-12.449-168.394l28.416,54.801C-102.713,0.186-78.515,132.738-14.019,227.003
								c-0.022,0.006-16.236,23.471-26.024,43.813c-86.843-56.538-114.031-204.639-113.381-206.228
								C-58.597-21.004-45.904-48.154-12.449-168.394z M477.633,233.964c5.669-83.751,46.293-138.71,91.978-172.412l2.851,85.136
								C542.594,175.691,511.007,205.642,477.633,233.964z M352.52,150.378c103.945-98.23,106.693-236.866,29.951-338.172
								l30.902-43.698c44.448,47.013,88.053,96.291,107.167,211.306c-65.884,52.563-123.863,139.118-138.913,226.233L352.52,150.378
								z M207.831,37.655l-0.429-39.89l38.533-0.426l0.235,39.831L207.831,37.655z M125.182,37.834l-0.795-39.75l38.649,0.048
								l-0.363,40.304L125.182,37.834z M190.186-67.55c0,0,129.78-183.558,180.243-249.311l10.854,7.882L210.407-68.105
								L190.186-67.55z M-111.865-194.033c0.296,71.55-45.233,128.51-91.861,165.779l0.16-81.459
								C-175.526-139.058-144.465-166.925-111.865-194.033z M566.764-543.299l2.143,317.561l-43.931-26.104l2.135-266.334
								L566.764-543.299z M358.194-523.26c-98.979-25.116-189.064-32.272-283.602-11.431
								c-12.423-14.638-54.239-75.672-54.239-75.672l23.929,0.212l34.183,54.004l64.466-8.813l-16.871-43.996l26.6-0.041
								l13.508,43.165c-0.137-0.342,52.487,0.209,81.76,3.499c4.549-16.085,13.012-48.038,13.012-48.038l29.3-0.195
								c-3.675,15.357-13.566,51.895-13.566,51.895c24.014,3.194,68.595,14.246,69.007,14.735
								c15.487-22.164,29.87-44.326,43.865-66.481l28.551-0.306C409.777-596.419,359.782-522.562,358.194-523.26L358.194-523.26z
								 M339.734-561.221l-43.723-9.92l11.178-38.551l61.025-0.393L339.734-561.221z M88.924-573.657l-20.512-35.597l39.065-0.231
								l13.12,31.377L88.924-573.657z M177.556-581.459l-6.083-28.404l70.946-0.419l-7.072,30.337L177.556-581.459z"/>
							<path id="path3500-9-6-1" d="M15.178-611.337L78.81-520.65c25.28-2.347,68.903-14.709,145.246-8.031
								c0,0,10.972,32.495,14.724,48.459c11.137,43.185-3.004,87.175-28.206,109.899c-12.786,11.534-29.689,25.202-47.67,32.277
								c-24.911,10.573-27.454,10.533-42.165,11.304c-9.726,0.516-10.71,0.897-16.019,3.689c-1.637,0.584-2.699,2.302-4.159,2.802
								c-1.231,0.422-3.569-0.04-3.569-0.04C16.045-284.242-47.252-244.208-95.031-208.507c-0.558,0.412-0.9,2.264-1.436,2.703
								c-3.908,3.237-7.514,5.694-11.324,8.648c-0.526,0.406-1.707-0.31-2.227,0.096c-56.203,43.831-87.981,79.294-99.684,89.546
								l2.351,202.531c0,0,25.619-13.366,38.756-21.489c9.721,78.364,49.292,154.321,111.362,206.864l-26.578,37.095
								l-123.961-84.278l3.924,373.695l65.368-45.977l-0.233-39.417c19.641,13.055,38.771,18.072,53.016,77.987
								c10.981-21.138,9.821-52.519,4.722-73.457c-0.956,1.325,14.679-12.55,21.602-24.337l-24.518-21.491
								c0,0,6.002-52.436-5.559-62.926c-8.961,23.843-16.066,49.099-49.967,67.65l-1.502-182.038
								c17.011,10.635,33.12,22.628,49.939,33.546l2.303-0.477l17.409,11.77c0,0-1.821,3.722-3.486,6.277
								c-20.875,32.069,14.453,71.052,42.863,47.305c11.127-9.293,32.336,28.972,36.511,65.869
								c4.173,23.826,6.521,53.417,13.122,74.097c2.042,6.029,1.271,9.43-2.974,13.122c-21.698,30.915-65.313,93.198-65.313,93.198
								l31.687-0.187l2.268-3.641l-23.348,0.138c19.963-26.89,38.968-58.203,59.683-84.462
								c77.944,28.813,205.373,34.832,282.202,16.63c16.024,22.188,31.601,45.455,47.018,68.066l-22.125,0.131l3.066,4.737
								l29.936-0.177l-63.593-92.443c-43.382,13.184-149.352,8.767-147.43,7.685c0,0-0.295-0.716-4.026-11.219
								c-18.536-58.614-20.533-110.716,24.848-153.102c24.112-21.696,51.104-36.064,81.353-33.547
								c13.509-0.345,13.764-1.081,19.384-3.654c3.095-1.421,9.513-2.922,9.513-2.922l30.531-17.161l4.036-0.83l8.775-4.691
								l1.814-2.17l14.19-7.318l1.606,0.129l19.167-11.191l0.249-1.553l7.536-4.722l1.821,1.895
								c2.102,0.164,75.148-48.388,105.578-75.389l1.9,0.69c35.535-29.108,83.815-74.951,98.119-92.337l-1.288-86.686l-1.224-1.048
								l-1.062-96.004l-2.78,0.016l-0.199-11.838c-15.75,5.941-33.042,20.705-34.209,20.104
								c-10.537-81.22-48.393-155.856-109.872-210.473l25.829-36.114l121.383,80.638l0.188-23.769l1.503-0.009
								c0.944-91.139,0.369-327.356,0.369-327.356l-1.197-0.109l-0.154-18.857l-61.568,39.82l-0.637,39.874
								c-27.457-8.79-45.003-41.598-50.93-70.898c-7.965,3.25-9.564,71.884-9.564,71.884c-1.24-0.169-19.33,17.322-19.33,17.322
								s15.634,17.297,23.886,24.339c-1.691,3.699-4.786,55.367-1.149,61.828c1.677,4.767,7.378,4.048,7.37-0.977
								c8.099-40.769,46.567-67.718,48.747-65.268l0.16,187.75l-68.894-47.687c14.309-16.353,17.186-43.81-1.037-57.127
								c-18.272-13.355-36.025-1.831-40.182,6.753c-22.367-14.386-30.172-68.132-33.55-89.174
								c-0.869-10.239-3.59-24.133-6.692-36.661c-1.943-7.858-4.25-15.36-4.582-22.399c-0.149-3.318,0.231-4.761,3.223-8.932
								l66.156-95.031l-34.058,0.085l-0.325,0.587l26.785-0.086l-59.654,85.792C266-552.619,172.118-558.951,71.828-540.318
								l-50-69.462l22.537-0.221l-0.89-1.502L15.178-611.337z M67.524-610.839l0.961,1.701l38.978-0.346l-0.596-1.443
								C106.868-610.928,67.605-610.84,67.524-610.839z M125.319-610.976l0.761,2.055l26.589-0.057l-0.823-2.011L125.319-610.976z
								 M261.114-611.049l-0.264,0.94l29.301-0.129l0.264-0.935L261.114-611.049z M171.3-610.502l0.29,1.208l70.703-0.417
								l0.252-1.134L171.3-610.502z M307.452-610.665l-0.274,0.985l61.025-0.404l0.512-0.942L307.452-610.665z M565.264-560.128
								l0.259,12.838l-40.831,26.306c-0.705,54.945-1.036,266.284-1.036,266.284l-9.864-6.386l0.378-264.645
								C514.169-525.732,550.292-549.249,565.264-560.128L565.264-560.128z M457.744-549.156l1.39-0.008l0.438,2.968l-2.392,0.014
								L457.744-549.156z M460.699-541.414l1.101,3.991l-6.001,0.035l0.699-3.892L460.699-541.414z M564.187-539.943l0.05,8.388
								l-35.242,22.302l-0.049-8.311L564.187-539.943z M455.053-532.324l9.256,0.072l1.864,4.622l-11.932,0.071L455.053-532.324z
								 M227.914-528.488l6.195,0.885c14.373,33.734,18.208,62.758,20.843,92.966c5.888,39.19,17.529,78.224,25.557,94.887
								l-9.072,0.053c-1.046-0.132-20.537-56.686-24.721-90.193c-1.117-6.631-0.722-12.796-1.092-18.946
								C243.445-474.749,239.774-494.21,227.914-528.488z M239.547-527.198l7.913,0.771c5.658,23.983,13.829,46.592,17.236,70.699
								c5.453,38.557,8.487,77.979,27.319,115.911l-7.386,0.043c-11.449-25.65-18.589-52.528-23.264-81.504
								c-3.611-16.612-3.727-29.091-5.68-44.117C253.317-483.433,246.221-506.358,239.547-527.198L239.547-527.198z
								 M251.557-526.143l7.91,1.124c5.339,23.819,14.404,50.002,16.891,71.546c5.064,43.872,12.201,84.645,26.217,113.593
								l-5.527,0.033c-21.637-41.311-22.194-78.302-28.419-117.092C264.964-479.791,257.347-502.614,251.557-526.143z
								 M264.163-524.373l6.988,1.041c4.989,23.7,13.853,50.497,16.02,74.55c3.839,42.582,11.581,74.532,27.644,108.83l-6.54,0.039
								c-19.344-33.384-22.153-74.105-28.363-115.712C276.49-478.605,268.929-501.71,264.163-524.373z M564.269-526.088
								l0.061,10.382l-35.238,22.921l-0.061-10.254L564.269-526.088z M275.585-522.38l7.301,1.094
								c4.827,22.856,13.704,47.223,15.893,69.492c3.748,38.054,10.989,76.44,26.896,111.777l-6.739,0.04
								c-16.809-35.68-24.228-67.748-27.617-108.846C289.427-471.867,280.388-499.927,275.585-522.38L275.585-522.38z
								 M468.218-523.396l3.877,6.974l-18.252,0.108l0.164-6.926L468.218-523.396z M287.601-520.17l8.678,1.633
								c9.4,36.447,12.007,70.995,18.472,105.653c8.071,43.059,16.447,64.795,23.229,72.795l-7.176,0.042
								c-17.728-37.22-24.153-74.176-28.452-112.596C299.825-475.308,292.259-497.612,287.601-520.17z M300.835-517.791l6.613,1.292
								c8.052,29.789,11.772,57.671,15.401,84.654c6.605,51.246,23.922,89.899,27.575,91.684l-7.294,0.043
								c-15.935-21.758-22.016-58.986-30.094-111.433C309.483-474.609,305.951-496.301,300.835-517.791z M311.482-515.717
								l7.413,1.779c0,0,6.835,26.207,12.083,61.01c4.373,29.005,6.919,86.117,38.671,118.776
								c15.849,16.302,43.687,30.374,62.526,14.784c8.051-6.939,13.2-18.025,8.266-29.814c-8.289-19.737-35.959-16.189-26.625,4.514
								c1.064,4.975-5.448,5.234-10.007,0.396c-4.793-5.163-3.643-11.089-0.297-16.554c7.049-11.517,26.101-12.822,37.356-2.639
								c17.978,17.405,10.419,47.491-12.15,57.15c-26.008,11.231-59.759-11.437-73.194-33.176
								c-22.236-37.884-25.854-73.939-31.241-112.287C321.542-472.487,316.35-494.22,311.482-515.717z M322.662-512.707l7.521,1.783
								c0.049,0.099,8.471,36.938,11.326,58.778c3.532,26.994,7.426,58.807,19.142,83.306c7.277,15.243,17.836,28.031,28.46,35.456
								c9.137,6.385,17.312,10.407,29.406,7.701c13.956-3.125,14.432-24.759,1.093-24.735c-6.809,0.013-2.409-6.568,3.246-6.789
								c20.095-0.781,20.859,30.89,1.981,38.07c-21.619,8.223-45.132-6.885-59.748-25.961
								c-25.617-39.267-24.827-75.227-30.585-106.979C332.915-468.81,323.227-511.926,322.662-512.707L322.662-512.707z
								 M474.747-512.506l4.626,6.113l-25.514,0.035l0.062-5.848L474.747-512.506z M333.875-509.636l7.212,2.465
								c0.194-0.001,7.388,28.594,11.951,62.414c5.364,32.605,7.216,59.752,24.255,83.226c7.088,9.76,20.439,22.764,28.809,24.271
								c5.178,1.085,10.537-0.09,11.828-4.029c2.117-6.462,7.672-3.53,7.825,2.323c-0.024,4.092-2.984,8.367-8.055,9.872
								c-24.815,4.443-47.727-26.606-54.716-42.38c-9.477-22.95-13.626-48.637-17.866-80.619
								C343.326-465.636,334.872-508.775,333.875-509.636L333.875-509.636z M564.365-509.848l-0.058,10.338l-35.122,22.429
								l-0.059-10.056L564.365-509.848z M344.722-506.536l8.072,2.15c0,0,6.872,25.147,11.074,56.234
								c4.253,31.529,13.208,68.133,29.648,86.994c1.492,1.808,2.518,3.089,3.16,4.151c1.19,2.572-0.175,6.937-1.392,6.95
								c-29.169-14.964-36.413-75.744-39.028-96.287C352.383-478.125,344.722-506.536,344.722-506.536L344.722-506.536z
								 M454.469-501.584l29.058-0.171l6.145,5.989l-34.844,0.183L454.469-501.584z M564.455-494.568l0.051,8.576l-35.24,22.612
								l-0.052-8.764L564.455-494.568z M470.35-490.739c8.652-0.084,19.049-0.135,26.01-0.054l12.92,7.511
								c0.337,0.556-58.429,0.345-58.429,0.345c1.518-2.052,3.014-4.082,3.931-7.611
								C454.782-490.547,461.699-490.654,470.35-490.739z M564.535-480.973l0.061,10.288l-35.241,22.374l-0.057-9.653
								L564.535-480.973z M448.045-478.342c5.873,0.092,45.589,0.25,61.266,0.323l0.031,5.307l-70.83,0.418L448.045-478.342z
								 M437.35-466.632l72.027-0.243l0.042,7.206l-64.796,0.382L437.35-466.632z M564.624-466.02l0.063,10.74l-35.243,22.115
								l-0.06-10.177L564.624-466.02z M449.159-453.83c0,0,40.198-0.325,60.293-0.356l-11.763,6.044l-39.671,0.234L449.159-453.83z
								 M564.712-450.994l0.06,10.116l-35.241,22.446l-0.059-9.973L564.712-450.994z M457.694-442.631l34.386-0.203l-6.663,6.55
								l-28.667-0.229L457.694-442.631z M564.8-436.167l0.064,10.856l-35.244,21.817l-0.056-9.399L564.8-436.167z M456.38-431.557
								l24.382-0.144l-4.309,5.597l-20.697,0.122L456.38-431.557z M243.543-427.12c2.944,29.56,14.089,59.552,24.069,87.446
								l-7.801,0.046c0.391,0.522-15.484-34.765-20.926-67.894C239.715-408.488,243.956-426.504,243.543-427.12L243.543-427.12z
								 M454.889-421.338l18.214-0.107l-3.916,7.384l-14.836,0.06L454.889-421.338z M564.893-420.319l0.056,9.487l-35.244,21.96
								l-0.051-8.642L564.893-420.319z M454.374-410.064l12.067-0.071l-2.805,6.638l-9.363,0.055L454.374-410.064z M564.98-405.603
								l0.06,10.127l-35.242,22.142l-0.058-9.769L564.98-405.603z M235.821-401.844c3.687,23.161,19.595,60.546,20.753,62.235
								l-6.685,0.04c-0.783,2.396-18.782-51.417-18.782-51.417s1.391-3.559,4.72-10.857H235.821z M454.323-398.572l7.154-0.042
								l-1.194,4.055l-5.796,0.178L454.323-398.572z M455.017-389.629l3.723-0.022l-0.873,3.644l-2.322,0.014L455.017-389.629z
								 M565.072-390.091l0.048,8.184l-35.24,22.59l-0.046-7.747L565.072-390.091z M227.735-387.195
								c5.46,15.905,10.835,32.147,17.284,47.655l-7.919,0.047c-5.755-13.076-10.889-30.308-14.207-41.151L227.735-387.195z
								 M219.825-376.523l13.385,37.053l-7.477,0.044c-4.44-9.29-8.193-19.948-11.881-30.38
								C213.852-369.806,216.514-373.29,219.825-376.523L219.825-376.523z M565.153-376.258l0.057,9.702l-35.243,22.093
								l-0.049-8.361L565.153-376.258z M210.969-367.188c4.157,8.739,6.305,18.645,10.782,27.785l-9.239,0.054
								c-3.378-8.252-6.333-23.316-6.333-23.316L210.969-367.188z M202.532-359.926c1.77,6.881,3.258,13.494,6.015,20.601
								l-8.614,0.051c-2.571-5.634-2.848-16.119-2.848-16.119L202.532-359.926z M565.245-360.697l0.06,10.15l-35.246,21.474
								l-0.056-9.426L565.245-360.697z M193.863-352.89c0.348,5.156,1.287,9.082,2.23,13.638l-7.79,0.046
								c-0.63-2.669-0.973-6.019-0.917-9.366L193.863-352.89z M183.355-345.897c0,0,0.584,6.761,0.654,6.717l-12.248,0.072
								C175.932-341.259,183.355-345.897,183.355-345.897z M565.342-344.335l0.048,8.112l-35.242,22.264l-0.049-8.228
								L565.342-344.335z M144.885-329.01l212.527-0.956c2.594,3.243,4.623,6.495,9.033,9.727
								c-80.901,1.013-160.99,2.618-261.876,1.545l11.112-5.853C124.486-326.139,135.133-325.55,144.885-329.01z M565.425-330.298
								l0.052,8.929l-35.245,21.634l-0.051-8.653L565.425-330.298z M-32.566-318.193c-17.046,7.671-32.981,9.626-44.903,8.73
								c-25.674-1.93-64.875,9.036-72.624,33.734c-2.429,8.723-2.458,8.966,2.277,13.372c2.351,2.184,4.637,3.838,5.07,3.67
								c4.105-3.685,9.535-10.521,15.388-12.543c22.873-8.424,43.651-1.826,64.678-7.727
								C-45.747-283.712-30.559-297.629-32.566-318.193z M-33.283-315.964c-2.678,34.116-39.586,38.779-55.812,37.908
								c-32.908-1.777-45.809,8.123-50.985,14.25c-1.706,1.645-2.713,1.253-2.45-0.234c3.708-18.902,34.214-19.795,49.574-19.676
								c37.647,1.496,47.078-16.706,46.01-16.877c-2.848,1.298-4.953,2.437-7.838,3.829c-1.241,0.526-0.982-0.237-4.25-2.107
								c-0.05,0.249-3.714,8.708-8.57,0.736c0.126,0.397-3.382,7.132-9.98,0.904c0.05,0.674-3.932,6.446-10.386,0.603
								c-6.003,5.199-8.891,2.366-11.509-1.246c-1.895,1.154-7.437,8.736-12.145,0.64c-4.954,3.188-7.01,6.635-11.297,4.589
								c-9.961,1.848-18.531,12.12-21.993,21.518c-1.08,3.231-3.296,3.758-3.587,0.22c-1.238-9.778,14.765-26.826,30.898-31.599
								c12.547-3.713,21.094-6.392,48.723-5.5C-53.172-307.497-33.283-315.964-33.283-315.964L-33.283-315.964z M369.929-315.759
								l9.995,6.695L207.971-68.301l-15.299,0.09L369.929-315.759z M91.822-313.958l19.706-0.116l0.192,32.586l-16.991,0.1
								l-6.125-8.987c1.576,0.913,3.397,1.443,5.35,1.432c5.832-0.034,10.539-4.789,10.504-10.626
								c-0.034-5.831-4.797-10.514-10.629-10.479c-5.832,0.034-10.539,4.773-10.505,10.604c0.003,0.519,0.052,1.021,0.122,1.518
								l-6.402-9.378c0,0,2.684-1.628,9.108-4.532c1.66-0.755,5.666-2.121,5.666-2.121H91.822z M152.573-314.316l33.387-0.197
								l0.192,32.586l-33.387,0.197L152.573-314.316z M225.733-314.748l34.575-0.204l0.192,32.586l-34.575,0.204L225.733-314.748z
								 M300.382-315.188l34.542-0.204l0.192,32.586l-34.542,0.204L300.382-315.188z M564.992-315.971l0.577,10.158l-35.245,21.712
								l-0.059-10.05L564.992-315.971z M316.417-311.141c-6.174,0.036-11.176,5.058-11.139,11.232s5.098,11.141,11.271,11.105
								c6.174-0.036,11.154-5.063,11.118-11.237S322.591-311.177,316.417-311.141z M169.371-309.688
								c-6.171,0.036-11.141,5.063-11.104,11.232c0.036,6.174,5.068,11.142,11.236,11.105c6.174-0.036,11.152-5.063,11.115-11.237
								C180.581-304.757,175.545-309.725,169.371-309.688z M242.22-309.892c-6.174,0.037-11.149,5.036-11.113,11.21
								c0.036,6.174,5.071,11.164,11.244,11.127c6.174-0.036,11.154-5.085,11.118-11.259
								C253.433-304.988,248.393-309.928,242.22-309.892z M131.677-307.77c5.18-0.031,9.398,4.141,9.429,9.316
								c0.031,5.18-4.139,9.401-9.318,9.432c-5.18,0.031-9.398-4.141-9.429-9.321C122.328-303.518,126.497-307.74,131.677-307.77z
								 M353.809-308.75c2.23-0.013,4.261,0.826,5.799,2.191l-10.127,13.932c-2.536-1.498-4.243-4.238-4.262-7.402
								C345.19-304.817,349.025-308.722,353.809-308.75z M279.865-308.28c5.182-0.031,9.409,4.141,9.44,9.321
								c0.031,5.174-4.147,9.401-9.329,9.432c-5.172,0.031-9.398-4.147-9.429-9.321C270.516-304.028,274.693-308.25,279.865-308.28z
								 M207.053-307.84c5.182-0.031,9.398,4.147,9.429,9.327c0.031,5.174-4.136,9.396-9.318,9.426
								c-5.177,0.031-9.398-4.142-9.429-9.316C197.704-303.582,201.881-307.809,207.053-307.84z M93.852-306.487
								c3.863-0.023,7.008,3.084,7.031,6.944c0.023,3.86-3.086,7.026-6.948,7.049c-3.86,0.023-7.025-3.106-7.047-6.966
								C86.864-303.32,89.992-306.464,93.852-306.487z M72.41-305.99v0.011c60.013,75.5,92.13,154.129,106.55,237.85l-9.988,0.059
								c-17.09-91.049-54.823-171.396-105.726-234.188L72.41-305.99z M316.44-307.359c4.083-0.024,7.427,3.259,7.451,7.339
								c0.024,4.086-3.28,7.43-7.364,7.454c-4.083,0.024-7.422-3.281-7.446-7.367C309.057-304.013,312.356-307.334,316.44-307.359z
								 M169.393-305.906c4.086-0.024,7.435,3.259,7.459,7.339c0.024,4.086-3.285,7.43-7.372,7.454
								c-4.083,0.024-7.416-3.281-7.44-7.367C162.016-302.56,165.31-305.881,169.393-305.906z M242.242-306.131
								c4.083-0.024,7.422,3.259,7.446,7.34c0.024,4.086-3.275,7.43-7.358,7.454c-4.083,0.024-7.432-3.28-7.456-7.366
								C234.849-302.785,238.158-306.107,242.242-306.131z M427.623-301.918c4.099,30-3.544,49.417-26.416,52.695
								c-29.169,4.181-32.949,6.402-32.947,34.041c-0.001,32.763-4.782,42.257-27.975,44.983
								c-26.089,3.07-32.136,6.198-29.596,38.637c1.842,23.674-7.429,33.801-27.508,38.315
								c-15.694,3.528-29.276,8.837-35.012,24.709l-14.368,0.085c3.586-24.971,28.589-36.803,44.659-37.721
								c17.301-4.216,20.886-10.047,17.906-40.402c-2.252-22.849,6.095-29.845,32.929-35.228
								c21.453-4.362,26.675-10.556,25.397-28.115c-2.727-37.646-0.256-43.326,21.104-48.03c10.888-2.648,28.637-3.907,35.365-12.28
								c7.642-9.516,5.628-17.572,4.859-29.208L427.623-301.918z M565.593-301.727l0.058,9.851l-35.243,22.021l-0.057-9.586
								L565.593-301.727z M45.81-292.828c-7.371,32.691,18.68,39.639,34.54,45.057c18.446,6.297,22.974,15.564,21.076,48.018
								c-1.436,24.549,1.295,29.956,17.236,38.289c24.383,12.397,31.023,30.184,20.379,56.339
								c-6.561,16.131-3.028,23.206,1.27,37.224l-11.784,0.07c-0.858,0.276-10.937-20.153-2.557-39.342
								c9.932-22.744,9.577-34.129-12.918-44.201c-17.404-7.794-22.776-15.212-23.952-31.451
								c-0.498-6.839-0.462-10.247,1.053-25.133c1.909-18.765-4.826-26.788-32.612-36.928c-12.38-4.521-20.839-15.162-23.468-32.095
								c-0.734-4.739-0.133-10.215-0.133-10.215L45.81-292.828z M460.481-291.736L566.342-222.2l-0.64,15.61l-112.299-74.081
								L460.481-291.736z M392.547-289.783c5.096-0.03,9.263,4.076,9.293,9.173c0.03,5.102-4.088,9.263-9.184,9.293
								c-5.102,0.03-9.258-4.082-9.288-9.184C383.338-285.598,387.446-289.753,392.547-289.783z M60.856-283.794
								c4.628-0.027,8.378,3.689,8.405,8.317c0.027,4.627-3.678,8.41-8.306,8.437c-4.633,0.027-8.415-3.711-8.445-8.338
								C52.482-280.006,56.223-283.767,60.856-283.794z M565.375-285.789l-0.289,9.401l-34.588,21.669l-0.055-9.393L565.375-285.789
								z M60.619-280.154l-2.202,3.851l-2.205,3.857l4.453-0.026l4.45-0.026l-2.248-3.83L60.619-280.154z M98.452-276.876
								l240.797-1.421l-6.119,8.347l-228.622,1.349L98.452-276.876z M15.164-275.976c32.132,41.371,63.725,84.733,88.371,165.279
								l-10.285,4.026C72.916-171.499,41.9-226.003,5.448-270.413L15.164-275.976z M565.77-271.82l0.061,10.293l-26.501,16.342
								l-7.863-5.056L565.77-271.82z M1.116-267.378l4.745,6.157c-9.504,8.538-27.374,17.137-29.54,28.156
								c-2.286,11.632,8.237,22.377,18.687,21.587C8.419-212.491,18.615-222,30.252-229.358l4.084,5.951
								c0,0-20.142,15.261-31.995,18.782c-26.005,7.719-45.642-25.183-26.509-44.899c2.926-3.016,9.111-7.073,14.041-10.299
								C-5.07-263.133,1.116-267.378,1.116-267.378z M108.355-263.924l221.346,0.008L189.503-68.192l-6.279,0.037
								C171.841-140.352,144.278-205.368,108.355-263.924z M11.888-255.16l13.038,17.992c0,0-8.381,8.106-22.259,15.803
								c-11.129,6.173-23.272-4.855-16.306-14.902C-6.484-246.243,11.888-255.16,11.888-255.16z M565.859-256.584l0.056,9.426
								l-15.271,9.478l-7.035-4.431L565.859-256.584z M10.88-246.07c-6.416,0.126-16.411,7.072-20.253,13.406
								c-1.474,2.593-0.928,4.76,0.459,6.519c2.109,2.683,4.583,2.513,11.919-1.451c14.983-8.101,17.77-12.867,11.124-17.521
								C13.209-245.763,12.106-246.05,10.88-246.07z M10.565-242.357c0.773-0.065,1.56,0.068,2.315,0.262
								c2.719,0.708,1.825,4.286-0.886,5.063c-0.604-0.941-5.116-1.041-4.785,3.541c-1.084,2.607-1.042,2.408-4.347,2.798
								c-2.196-0.517-3.644,1.004-4.067,1.968c-2.272,1.234-5.07,0.864-5.6-0.508c-0.514-1.333,1.338-5.193,2.924-5.192
								c0.763,0.056,2.114-1.089,3.503-2.036c-0.063-2.507,2.887-2.894,3.741-2.888c0.836,0.172,3.654,0.188,5-2.117
								C9.037-242.039,9.792-242.292,10.565-242.357z M565.938-243.221l0.086,14.529l-11.15-7.036L565.938-243.221z
								 M-48.194-237.775c40.59,47.357,69.923,97.85,88.815,167.855l-8.05,5.625C20.067-113.38,0.959-165.215-55.072-232.411
								L-48.194-237.775z M423.432-239.762C441.77-224.37,516.98-154.41,531.966-29.547l-9.962,6.188
								c-8.427-65.897-34.817-141.352-104.987-207.95L423.432-239.762z M387.396-235.209c5.096-0.03,9.253,4.076,9.288,9.178
								c0.03,5.097-4.083,9.252-9.179,9.282c-5.102,0.03-9.269-4.076-9.299-9.173C378.176-231.024,382.294-235.179,387.396-235.209z
								 M-59.367-228.967c0,0,8.52,8.658,8.519,10.729c-0.021,4.103-3.254,6.453-22.681,13.658
								c-3.279,1.218-17.635,4.621-17.635,4.621l0.297-7.125c7.322-2.688,26.125-7.372,27.544-11.566
								c0.693-1.65-2.833-5.798-2.089-5.802L-59.367-228.967z M74.945-227.987c4.633-0.027,8.391,3.717,8.418,8.344
								c0.027,4.633-3.687,8.41-8.319,8.438c-4.628,0.027-8.415-3.706-8.443-8.339C66.574-224.171,70.317-227.96,74.945-227.987z
								 M414.248-227.593c61.29,59.163,95.254,132.513,103.535,208.412c-70.619,58.13-118.394,130.974-137.016,221.848
								c-9.564-15.721-17.725-33.819-26.583-51.499c94.193-83.771,113.241-233.729,30.726-338.287L414.248-227.593z M75.217-224.294
								l-2.202,3.851l-2.202,3.856l4.45-0.026l4.45-0.026l-2.248-3.83L75.217-224.294z M41.666-214.046l4.303,6.59
								c-7.669,7.285-31.072,13.989-33.08,29.844c-1.096,11.46,7.075,23.5,18.49,21.571c13.137-2.22,21.318-7.597,32.993-14.376
								l3.37,6.883c0,0-9.283,7.648-27.218,14.342c-16.865,6.296-32.906-4.163-36.022-23.666
								c-2.268-14.179,3.877-21.825,28.451-35.963c2.766-1.485,8.71-5.226,8.71-5.226H41.666z M332.029-212.622
								c5.096-0.03,9.247,4.093,9.283,9.189c0.03,5.102-4.078,9.257-9.174,9.287c-5.107,0.03-9.269-4.076-9.299-9.178
								C322.809-208.421,326.922-212.592,332.029-212.622z M-44.523-210.036L-44.523-210.036l5.604,5.219
								c0,0-2.377,3.548-16.07,11.896c-12.309,7.505-13.59,6.309-7.41,11.469c11.524,9.618,27.553,30.972,27.5,36.517
								c-0.049,5.335-4.799,10.289-13.943,14.468c-5.005,2.288-24.833,9.49-27.748,10.015c-5.798,0.664-7.417,3.004-1.581,8.243
								c9.923,11.245,18.472,35.388,15.135,42.785c-3.76,8.328-8.32,9.763-44.813,11.651c-4.158,0.212-6.15-0.952-3.864,4.358
								c1.661,3.861,3.413,9.163,6.764,25.556c2.987,14.622,2.533,21.207-3.132,24.256c-3.257,1.753-28.656,1.29-39.154-0.708
								c-12.019-2.287-13.316-2.439-11.328,5.363c2.582,10.781,4.313,39.696-3.819,45.327c-3.384,2.234-7.042,1.715-21.978-3.217
								c-9.527-3.147-17.791-6.77-17.791-6.77l0.117-8.963c7.768,3.141,29.066,12.187,35.091,9.252
								c7.107-10.308-3.055-46.247-6.904-53.933c-4.644-9.178,0.139-11.217,10.747-5.569c5.572,3.877,53.48,22.431,50.663,5.588
								c-3.009-15.986-8.304-34.156-18.453-45.532c-9.387-10.525-4.769-14.876,5.636-10.305c18.413,8.097,56.34,5.869,54.399-2.629
								c-2.581-13.818-15.252-32.491-32.536-46.929c-4.805-4.014-4.998-5.747,0.636-6.774c16.057-1.376,62.008-6.363,55.518-17.121
								c-5.569-8.803-12.993-18.539-19.297-23.759c-10.351-8.576-20.765-12.253-25.382-14.021l0.252-6.623
								c20.929-1.863,31.774-8.222,47.129-19.109L-44.523-210.036z M-95.17-203.226c-7.042,78.75-39.589,143.79-107.286,189.422
								l-0.424-8.817c59.484-45.23,87.788-109.19,95.198-170.956L-95.17-203.226z M-37.441-199.845l5.611,4.981
								c0,0-1.423,2.184-9.428,8.659c-6.229,4.852-4.058,2.94,0.237,8.646c3.822,4.522,10.621,13.627,10.621,13.627l-1.93,12.171
								c-7.133-10.031-13.053-17.323-23.614-28.03c-5.366-5.463-5.057-5.614,2.534-9.624
								C-47.723-192.605-43.099-196.459-37.441-199.845z M49.362-199.341c0.051-0.011,11.382,19.818,11.379,21.608
								c-13.131,8.294-29.759,22.005-38.298,6.908c-2.615-4.849-1.009-11.204,5.648-15.628
								C36.969-192.995,48.531-199.137,49.362-199.341L49.362-199.341z M115.174-192.909c4.63-0.027,8.388,3.678,8.418,8.305
								c0.027,4.633-3.689,8.421-8.319,8.448c-4.628,0.027-8.415-3.717-8.443-8.35C106.803-189.133,110.547-192.882,115.174-192.909
								z M47.395-191.819c-7.969,2.151-15.757,9.332-20.131,12.5c-1.593,1.152-0.293,6.883,1.254,8.85
								c1.987,2.523,5.62,2.082,9.959-0.363c1.818-1.021,5.107-2.703,7.294-3.726c6.119-2.869,8.668-4.994,8.431-7.356
								C53.199-185.083,50.65-192.071,47.395-191.819L47.395-191.819z M-113.229-187.818c1.776,8.82-3.46,24.368-6.426,33.133
								c-17.739,23.486-43.592,35.594-68.187,43.901c-5.465,1.855-12.832,0.976-12.832,0.976
								C-166.78-145.091-137.685-170.979-113.229-187.818L-113.229-187.818z M115.19-188.873l-2.202,3.856l-2.202,3.856l4.45-0.026
								l4.45-0.026l-2.248-3.83L115.19-188.873z M48.282-187.92c1.265,0.219,2.074,2.236,2.749,4.413
								c-3.834,2.104-5.978,0.35-5.462,3.263c0,0,0.404,4.531-5.225,4.669c-1.377-0.588-3.769-0.464-4.92,0.714
								c-3.926,1.652-7.388-1.779-3.12-3.759c1.155-0.537,4.01-1.459,4.789-3.226c0.391-2.189,2.199-3.939,4.183-2.742
								c1.056,0.071,3.406,0.223,4.159-1.449C46.598-187.54,47.522-188.054,48.282-187.92L48.282-187.92z M-183.094-182.861
								c-0.681,0.059-1.335,0.185-2.002,0.293c-1.65,1.567-4.141,25.952-2.409,27.692c2.409,2.427,9.015,3.056,9.625,0.147
								c2.012-9.571,1.466-16.702,2.407-24.77C-178.797-182.637-181.054-183.038-183.094-182.861L-183.094-182.861z
								 M-180.526-180.269c3.634,1.475,1.944,14.418,0.12,20.404c-0.943,3.628-3.749,2.827-4.827-0.507
								c-1.119-3.461-0.259-13.324,1.794-17.378c1.096-1.911,2.083-2.701,2.932-2.519L-180.526-180.269z M-22.642-181.129
								l5.874,7.205C-28.438-56.419-111.711,45.671-201.034,86.482l-0.315-7.79C-99.212,24.276-38.08-65.673-22.645-181.129H-22.642
								z M382.704-183.035l11.198,15.209l-15.911,0.591L382.704-183.035z M-93.634-175.254c5.498-0.032,34.777,17.759,30.933,26.727
								c-3.064,7.136-27.48,7.849-38.683,6.921l1.643-6.863c0,0,3.417,1.161,16.422-0.29c13.659-0.997,12.627-5.685-3.092-15.505
								c-6.764-4.179-8.327-5.208-8.327-5.208L-93.634-175.254z M-12.708-166.101c9.132,15.188,17.797,32.311,25.95,51.508
								C-96.472-9.835-87.075,131.894-16.965,224.541l-29.73,40.626c-60.272-56.833-93.325-126.986-104.788-201.645
								C-64.37,0.065-23.82-94.108-12.708-166.101L-12.708-166.101z M397.018-163.902l6.663,12.552l-15.823-0.172L397.018-163.902z
								 M328.736-157.193c5.107-0.03,9.269,4.076,9.299,9.178c0.03,5.097-4.083,9.235-9.19,9.265
								c-5.096,0.03-9.258-4.059-9.288-9.156C319.527-153.008,323.64-157.163,328.736-157.193z M72.049-153.193l3.186,7.133
								c0.151,0.899-22.096,8.276-29.461,17.287C30.556-110.156,49.299-94.07,65.408-99.08c8.8-2.736,15.246-6.44,23.96-10.948
								l1.576,4.624c-11.543,6.319-21.203,13.511-33.888,13.845c-21.794,0.582-34.286-28.425-15.634-44.273
								C50.931-143.907,61.009-147.457,72.049-153.193L72.049-153.193z M360.615-150.456
								c72.568,103.362,23.974,217.38-22.247,257.893l-1.322-12.202c77.706-89.571,49.876-193.485,17.006-239.551L360.615-150.456z
								 M406.939-146.074l5.732,12.794l-16.721-1.668L406.939-146.074z M116.929-140.171c4.628-0.027,8.405,3.717,8.432,8.344
								s-3.705,8.394-8.333,8.421c-4.63,0.027-8.399-3.695-8.426-8.322S112.299-140.144,116.929-140.171z M352.09-139.919
								c63.613,91.255,29.297,237.571-90.745,282.783l-0.664-10.245c122.362-52.007,133.602-188.595,83.861-265.336L352.09-139.919z
								 M78.702-137.742l8.094,21.473c-9.989,6.774-16.746,9.122-25.13,10.734c-11.86,2.284-18.82-12.723-9.066-19.092
								C61.183-130.234,68.661-134.315,78.702-137.742z M-125.85-136.458c1.481-0.08-0.06,3.595-3.814,12.84
								c-8.268,20.36-8.834,20.794-29.937,24.27c-10.982,1.804-19.173,2.289-26.989,1.59c-11.794-1.068-16.858-4.368-9.232-6.02
								c22.12-4.996,46.54-16.615,62.399-27.814C-129.292-134.593-126.865-136.402-125.85-136.458L-125.85-136.458z
								 M117.023-136.163l-2.202,3.856l-2.213,3.857l4.461-0.026l4.45-0.026l-2.247-3.831L117.023-136.163z M275.034-136.322
								c5.727-0.034,10.414,4.588,10.453,10.315c0.034,5.726-4.604,10.392-10.331,10.426c-5.726,0.034-10.387-4.577-10.421-10.304
								C264.703-131.612,269.308-136.288,275.034-136.322z M-37.063-131.614l-2.25,8.004c0,0-12.757,6.834-18.797,9.416
								c-4.622,1.905-4.945,2.321-3.433,6.597c3.046,8.552,8.889,19.143,8.889,19.143l-5.278,12.147
								c-3.329-10.876-6.834-22.364-12.895-32.478c-5.736-7.902-6.808-8.878,2.039-10.587c11.414-3.917,21.714-6.771,31.724-12.242
								H-37.063z M75.802-129.679c-6.258,0.313-19.307,5.642-20.57,10.686c-0.719,2.843,0.118,6.814,2.529,7.694
								c6.522,2.38,19.557-3.053,22.973-7.96c1.063-1.514-0.585-4.63-1.749-6.578C78.098-127.324,78.255-129.799,75.802-129.679z
								 M75.754-125.482c0.232-0.012,0.474,0.019,0.723,0.084c1.061-0.095,4.949,4.759,0.613,4.375
								c-1.493-0.135-2.85,0.437-4.068,1.719c-0.137,2.342-3.493,3.251-5.12,2.46c-1.21-0.589-2.897,0.646-3.065,1.377
								c-2.422,1.765-5.499,1.706-5.899,0.46c-0.829-0.868,1.6-4.471,3.74-4.352c0.461,0.025,1.976-1.011,3.386-2.251
								c0.667-2.456,3.253-2.046,4.886-1.928C72.76-123.532,74.122-125.39,75.754-125.482L75.754-125.482z M414.976-127.02
								l4.703,12.811l-16.547-1.371L414.976-127.02z M338.404-123.746c5.569,1.541,8.681,6.719,5.646,11.939
								c-3.395,4.377-6.552,4.44-11.542,4.238c4.117,4.813,5.961,11.495,2.012,15.903c-6.013,6.198-17.732-3.187-16.875-4.053
								L338.404-123.746z M-110.628-116.392c0,0,25.575,21.767,25.817,31.59c0.092,3.743-1.102,4.96-4.086,5.972
								c-9.979,3.372-37.854-4.979-37.854-4.979l3.537-6.808c4.387,1.178,25.976,6.628,27.816,3.873
								c1.906-2.861-18.141-22.192-18.184-22.214L-110.628-116.392z M15.727-107.981l3.117,10.59L8.424-99.926L15.727-107.981z
								 M422.116-108.48l2.802,14.634l-16.68-3.789L422.116-108.48z M104.46-106.374l2.534,8.583
								C-3.241-45.882-34.829,72.028,23.386,168.826l-6.46,8.995C-60.974,53.246,16.433-74.118,104.46-106.374z M-146.871-96.248
								c1.811,0.072,2.677,0.802,2.283,2.51c0.01,1.756-11.073,16.069-14.669,19.299c-7.822,3.21-38.143-9.246-42.718-18.999
								c-0.906-2.855,2.089-1.625,8.793-0.3c16.162,4.505,32.529-0.783,44.192-2.371C-148.188-96.218-147.474-96.272-146.871-96.248
								z M147.3-97.796c4.63-0.027,8.399,3.689,8.426,8.316c0.027,4.633-3.697,8.41-8.328,8.438s-8.399-3.706-8.427-8.339
								C138.945-94.008,142.669-97.769,147.3-97.796z M4.924-96.779l1.572,13.034l-12.839-0.67L4.924-96.779z M147.135-93.67
								l-2.202,3.868l-2.202,3.856l4.45-0.026l4.453-0.026l-2.248-3.83L147.135-93.67z M-200.842-85.421
								c8.459,7.51,20.862,13.688,31.838,15.805c6.834,1.462,4.864,2.175-1.427,8.75c-5.884,6.22-5.395,7.001-11.441,3.983
								c-10.088-5.043-21.103-16.569-20.698-22.873C-202.402-82.385-201.962-85.425-200.842-85.421L-200.842-85.421z
								 M427.033-87.718l2.162,13.903l-15.784-5.352L427.033-87.718z M-10.636-80.121l5.21,12.438l-13.977-0.315L-10.636-80.121z
								 M335.176-79.185c6.592-0.343,9.176,4.733,9.243,8.88c0.01,1.745-0.403,4.68-0.403,4.68
								c8.19-5.278,19.119-1.041,18.846,7.404c-0.382,11.914-6.211,12.064-15.734,10.541c5.255,8.606-0.88,16.964-10.693,13.836
								c-8.949-2.852-7.27-12.277-3.133-17.885c-21.043,3.559-26.501,33.56-2.121,42.318c-4.931-7.536-6.207-16.574,4.397-18.156
								c9.839-1.466,14.064,5.98,9.861,14.995c9.236-3.274,17.995,1.987,15.257,11.021c-3.297,10.909-12.988,10.216-18.743,3.617
								c4.158,9.844-5.281,17.007-12.469,13.222c-11.316-5.964-5.799-16.753,1.748-19.658c-29.087-2.822-35.6,37.413-14.141,43.019
								c-5.521-3.413-6.223-19.23,6.342-17.14c12.351,2.412,9.472,13.877,1.594,19.136c9.539-2.094,18.531,6.197,12.774,14.663
								c-6.794,9.986-16.295,2.951-19.837-3.798c1.153,9.072-4.578,14.893-12.021,11.53c-12.791-5.767-3.461-20.456,6.511-19.582
								c-20.294-11.83-47.642,13.402-31.315,34.064c-0.691-9.428,3.971-17.192,10.453-16.165c5.703,0.612,10.719,7.077,9.15,12.194
								c-1.466,4.366-6.414,7.73-11.611,8.81c15.477,1.626,16.861,12.557,10.487,17.99c-10.828,9.22-15.949-1.325-18.506-7.49
								c-2.118,15.375-20.266,10.258-20.962-0.832c-0.686-12.161,13.354-11.99,15.95-11.321
								c0.326-0.427-12.962-11.929-24.909-13.432l-0.026-4.368c46.899-29.793,64.865-83.608,49.644-132.374l2.809-3.275
								c7.706,5.819,15.484,18.342,29.651,13.647c0,0-3.321-2.294-4.963-3.897C320.953-70.144,325.019-78.656,335.176-79.185
								L335.176-79.185z M25.13-68.448l4.92,7.128c-70.875,84.025-57.304,179.602-15.891,242.686L8.23,188.63
								C-28.367,142.277-58.693,29.553,25.13-68.448z M-201.056-66.075c5.916,3.372,9.887,8.485,15.414,12.942
								c4.271,3.415,4.215,4.028,0.722,7.324c-7.858,7.667-12.367-3.34-14.948-7.836C-203.033-59.668-203.388-65.829-201.056-66.075
								L-201.056-66.075z M76.464-67.365c5.011,0.075,9.602,4.383,9.558,10.116c-0.086,1.861,0.063,3.352,0.063,3.352
								s1.532-1.909,2.763-4.202c6.035-10.224,19.177-4.443,17.091,7.271c-0.98,5.495-10.212,7.692-12.737,6.139
								c2.433,6.524,8.934,8.021,16.851,10.807c2.767,0.509,8.261,1.823,8.261,1.823l0.026,4.429
								C75.69-0.408,51.163,45.461,67.224,107.9l-4.698,6.439c-8.758-20.723-16.631-20.218-30.834-20.952c0,0,3.546,2.47,5.594,4.86
								c4.334,5.061,2.471,13.946-3.481,14.903c-13.792,2.219-13.987-7.566-12.2-14.208c0,0-2.455,2.085-3.66,2.876
								c-5.455,3.594-12.297-0.054-12.974-7.108c-0.64-6.639,1.597-10.955,8.429-11.818c2.293-0.29,5.841,0.264,5.841,0.264
								s-1.376-2.593-2.133-4.057c-3.311-6.403,3.841-11.934,10.443-10.587c10.417,2.446,9.643,11.424,3.66,18.517
								c16.147,1.12,24.553-9.489,23.301-19.957c-1.525-12.77-7.456-19.637-20.164-21.788c0,0,2.072,3.196,2.956,4.743
								c3.282,5.746-1.346,12.858-8.175,12.854c-7.006-0.003-11.524-6.398-8.862-12.754c0.648-1.544,3.263-3.493,2.86-3.673
								c-0.278-0.12-3.878,1.022-4.871,1.183C9.849,49.001,4.405,41.634,7.887,34.219c2.469-5.25,9.975-6.708,15.448-4.172
								c0.866,0.315,1.927,1.524,2.09,1.258c0.157-0.26-0.567-1.974-0.795-3.182c-1.766-6.76,1.461-10.402,8.801-9.975
								c10.272,0.596,14.143,8.951,7.29,16.535c-1.769,1.96-4.475,4.853-4.475,4.853c0.351,1.483,14.649,2.481,21.912-5.215
								c8.406-8.896,9.638-27.375,1.104-33.355c-1.409-0.986-4.238-2.946-4.238-2.946c4.096,8.094-3.304,17.47-9.887,15.764
								c-13.163-3.092-12.09-13.85-3.467-17.303c0,0-8.781-3.229-11.326-6.737c-3.599-4.965-2.424-9.572,1.838-13.104
								c5.367-4.367,13.042-1.568,16.774,3.761c2.193-6.816,5.325-11.44,14.659-7.79c6.531,3.071,6.518,11.757-0.624,16.532
								c-2.286,1.527-6.364,2.964-6.364,2.964s6.184,3.481,13.686,3.525C84.782-4.294,96.137-21.42,90.223-34.423
								c-1.201-2.638-4.184-6.039-4.184-6.039s-0.291,4.563-1.18,6.319c-3.304,6.519-10.994,6.675-15.565,2.605
								c-4.151-3.703-2.969-8.691,0.211-12.106c2.417-2.593,4.609-3.12,7.994-4.719c-3.862-1.275-8.161-2.194-10.06-6.17
								c-1.765-3.789-0.567-8.473,4.035-11.4c1.608-1.02,3.323-1.455,4.994-1.432H76.464z M430.842-67.7l1.073,14.738l-16.468-6.204
								L430.842-67.7z M-21.909-64.156l5.991,13.362l-15.259,0.029L-21.909-64.156z M296.907-66.021
								c14.653,52.916-7.682,94.029-45.771,124.051l-0.05-8.493c29.759-25.578,50.14-55.645,39.934-108.941L296.907-66.021z
								 M-142.717-63.249c0,0,22.324,28.562,17.958,38.296c-5.812,9.295-40.871-10.439-40.419-11.496l4.363-4.228
								c5.562,2.215,22.889,11.639,26.703,10.108c1.288-8.677-8.974-19.844-12.854-27.292L-142.717-63.249z M121.143-62.382
								l168.205-0.992l-4.979,8.103l-13.107,0.077L245.555-7.546l-120.89,0.713L121.143-62.382z M-67.633-59.015l-5.751,10.548
								c-5.434,1.705-21.863,2.095-23.176,3.191c2.014,5.378,4.29,21.202,4.29,21.202l-6.432,8.321
								c-1.787-10.178-4.745-23.038-7.349-32.466c-2.226-7.994-1.599-6.236,15.454-7.662C-82.955-56.357-75.087-57.37-67.633-59.015
								z M-33.056-46.546l6.99,12.24l-14.019,0.226L-33.056-46.546z M-201.491-44.729c0.763-0.314,5.129,4.525,5.883,5.924
								c-0.299,3.194-5.242,4.968-6.011,3.835c-0.313-0.462-0.452-7.624,0.029-9.615C-201.59-44.662-201.544-44.707-201.491-44.729
								L-201.491-44.729z M433.02-48.302l-0.049,15.369l-16.706-7.285L433.02-48.302z M565.343-45.615l-0.173,9.958
								C504.917-5.785,414.696,74.765,389.817,217.038l-4.75-7.007C409.963,74.18,498.175-6.126,565.343-45.615L565.343-45.615z
								 M-42.411-28.322l7.579,11.276l-13.556,1.565L-42.411-28.322z M433.481-26.784l-1.256,13.62l-16.463-8.998L433.481-26.784z
								 M118.364-22.092c0.081,3.23-0.164,5.562,0.052,8.786C81.322,11.017,68.962,49.022,75.447,96.724l-5.111,7.656
								C57.965,61.165,70.418,7.751,118.364-22.092z M-186.978-18.429c0,0,14.373,31.856,8.815,39.416
								c-5.425,4.472-18.035-2.843-23.765-5.824l-0.204-7.642c0,0,4.366,2.211,8.764,3.935c9.036,3.939,9.027-0.815,4.011-14.127
								c-1.762-4.678-3.513-10.102-3.513-10.102L-186.978-18.429z M549.553-21.826c3.806,2.203,16.121,5.753,16.121,5.753
								l-0.076,9.052l-25.395-8.934L549.553-21.826z M-51.132-8.418l9.762,10.092l-13.503,3.177L-51.132-8.418z M537.453-10.749
								c0.916-0.072,1.864-0.05,2.856,0.061c8.587-0.04,25.178,6.837,25.178,6.837l-0.038,10.045c-8.418-2.38-18.218-7-27.115-8.261
								c-7.031-0.925-6.598,3.004-6.577,12.928c0.031,13.441,3.486,25.558,9.986,38.961c5.388,11.101,2.626,14.094-6.098,9.176
								c-15.708-10.643-49.091-18.547-54.182-12.271c-5.242,6.453,5.344,38.381,17.448,53.568c4.917,6.173,4.359,6.595,2.095,9.022
								c-1.836,1.971-3.944,2.68-9.222,1.032c-17.368-5.414-42.458-6.509-49.66-1.789c-7.143,4.681,11.713,36.604,27.45,46.855
								c10.203,7.19,8.263,10.808-8.165,11.275c-26.816,0.285-47.425,6.382-46.239,13.697c2.018,12.435,19.493,29.401,39.478,38.345
								c12.237,4.915,7.152,6.927-0.944,9.857c-13.538,4.663-26.531,12.073-39.258,19.002l-6.177-7.811
								c0,0,12.795-8.249,26.712-16.172c3.265-1.864,3.088-2.531-1.524-6.347c-14.953-12.386-25.949-26.232-28.289-35.59
								c-2.268-9.093,2.245-14.879,15.731-20.094c8.331-3.225,11.407-4.165,18.767-5.865c10.604-2.443,10.78-2.781,6.196-10.916
								c-2.058-3.649-5.434-9.682-7.492-13.392c-15.976-26.965-7.695-36.777,29.031-37.552c9.015-0.528,10.739-0.566,10.225-3.672
								c-2.031-12.739-7.757-27.339-7.024-38.145c1.585-16.3,18.315-20.336,47.805-13.16c6.825,1.661,7.302,1.31,6.074-4.189
								C518.998,11.466,523.755-9.679,537.453-10.749L537.453-10.749z M432.27-8.316l-2.477,15.808L414.044-2.841L432.27-8.316z
								 M-154.081-1.123l43.267,2.578l-6.824,8.097l-26.139-0.332l-0.846,22.315l-8.417,8.328L-154.081-1.123z M126.195-1.071
								l35.321-0.208l0.222,37.644l-35.321,0.208L126.195-1.071z M168.618-1.321l33.131-0.195l0.222,37.644l-33.131,0.195
								L168.618-1.321z M208.289-1.555l35.21-0.208l0.222,37.644l-35.21,0.208L208.289-1.555z M518.616-0.388
								c-0.783,9.685,1.356,27.172,2.219,34.677c-0.563,2.24-2.117,1.934-11.433-0.12c-6.466-2.115-24.355-2.651-24.355-2.651
								l7.452-7.985c6.135,0.693,10.961,0.609,17.312,1.361c-0.124-6.339,0.069-18.439,0.069-18.439L518.616-0.388z M-56.674,10.462
								l10.001,9.942l-12.711,3.333L-56.674,10.462z M428.941,10.854l-3.859,16.131L410.6,14.121L428.941,10.854z M545.38,10.609
								c7.196-0.208,13.223,2.197,19.905,7.995l0.113,8.216l-14.195-6.289c-0.101,9.372,8.295,26.259,8.295,26.259l-7.183,6.139
								c-5.88-9.486-9.514-20.945-9.911-31.667C542.457,17.38,541.885,10.812,545.38,10.609L545.38,10.609z M-61.408,30.442
								l11.861,6.949l-13.07,5.373L-61.408,30.442z M424.535,31.175l-5.688,16.605l-12.712-14.266L424.535,31.175z M-201.854,40.15
								l33.557,11.708l-7.26,4.958l-26.532-8.204L-201.854,40.15z M125.205,42.599l120.168-0.709l2.975,58.695l-168.442-0.392
								l5.818-8.329L96.662,91.7L125.205,42.599z M-63.546,48.28l12.569,8.767l-12.981,5.82L-63.546,48.28z M566.234,49.749
								l0.1,9.603c-40.485,30.28-84.664,81.809-91.606,173.398l-10.396,9.4c4.827-89.423,41.692-150.711,101.924-192.4H566.234z
								 M417.885,50.978l-5.816,14.933l-11.783-13.797L417.885,50.978z M466.354,53.437c-0.196,8.859,7.142,36.327,7.142,36.327
								c-11.084,0.606-21.844-0.594-33.794,2.834l5.576-10.089c0,0,5.212-0.578,9.764-1.516c9.416-1.927,8.443-0.779,6.207-8.96
								c-2.103-7.697-2.231-9.297-2.231-9.297S465.674,53.391,466.354,53.437L466.354,53.437z M497.416,55.125
								c11.044,0.023,27.695,9.837,35.168,15.448l-3.891,4.396c-1.102,0.376-16.661-7.837-28.863-9.715
								c4.038,7.867,5.969,13.748,14.878,26.204l-5.658,7.135c-1.715-0.371-24.015-34.35-18.208-41.751
								C492.613,55.629,494.862,55.118,497.416,55.125z M-155.152,66.608l0,0.011c15.071,88.052,50.204,148.368,105.38,202.508
								l-5.538,7.317C-120.142,217.81-155.787,142.918-165.408,72.34L-155.152,66.608z M-64.389,69.783l11.903,6.396l-12.144,7.173
								L-64.389,69.783z M566.17,66.316l0.001,12.933l-7.473-7.449C560.697,69.977,563.116,68.146,566.17,66.316L566.17,66.316z
								 M409.862,69.884l-7.993,14.896l-10.642-14.002L409.862,69.884z M554.727,75.429c10.762,1.433,14.336,22.899,10.784,27.1
								c-1.675-2.608-16.533-11.72-23.268-15.546C541.806,85.854,552.577,76.11,554.727,75.429z M381.898,87.477l17.227,1.533
								l-9.058,14.251L381.898,87.477z M-64.099,90.12l13.453,6.459l-12.127,8.648L-64.099,90.12z M541.2,92.86
								c2.23-0.002,4.746,0.922,7.892,2.648c12.161,6.682,18.567,14.033,17.932,20.608c-0.289,3.022-1.972,3.645-3.951,1.459
								c-3.557-3.927-15.509-9.003-25.8-10.958c-7.793-1.478-8.514-2.142-6.197-5.756C534.578,95.379,537.483,92.86,541.2,92.86
								L541.2,92.86z M333.93,100.312c19.056,70.456,52.91,125.214,94.299,169.667l-9.248,6.665
								c-31.446-35.643-66.042-77.364-94.627-167.854L333.93,100.312z M114.35,105.12l13.904-0.082c0.046-0.011,0.086,0,0.086,0
								c1.996,0.06-5.734,31.152-33.078,33.389c-17.3,2.974-19.233,5.895-19.335,32.85c-0.14,36.542-5.989,45.125-35.841,47.559
								c-19.767,1.613-22.346,5.654-18.833,34.029c3.346,27.006-6.784,40.855-31.98,40.976
								c-21.813,1.934-30.768,12.159-30.627,32.381c0.048,8.189,0.192,10.165,0.192,10.165l-14.092,1.188
								c0,0-0.035-13.303,0.977-19.781c4.145-26.183,15.299-36.725,38.906-36.748c18.243-1.499,21.06-4.476,20.266-32.137
								c-0.872-28.142-1.242-27.946,6.057-35.356c4.702-4.777,10.084-6.94,19.663-7.903c29.834-2.987,32.171-4.989,31.917-35.597
								c-2.919-25.413,4.025-41.021,20.168-42.397c32.131-2.625,31.647-22.535,31.647-22.535H114.35z M160.566,104.847l15.167-0.089
								L2.514,352.84l-9.248-6.881L160.566,104.847z M181.759,104.722c16.766,59.497,30.03,118.921,82.094,196.572l-218.917-0.15
								L181.759,104.722z M187.375,104.689l7.809-0.046c19.783,103.276,81.008,200.747,114.506,236.29l-6.471,3.479
								C254.347,284.435,209.832,214.333,187.375,104.689L187.375,104.689z M229.753,104.439l12.444-0.073
								c1.273-0.598,6.608,31.57-0.974,45.807c-6.777,19.252-3.341,30.055,11.693,36.969c25.811,11.864,32.373,23.825,29.282,53.354
								c-2.162,20.683,4.146,30.63,23.584,37.153c23.184,7.788,33.375,20.164,33.371,40.557c0.019,3.131-1.146,6.716-1.146,6.716
								l-12.868,7.664c0,0,0.134-2.768,0.61-6.089c3.234-22.627-1.085-28.737-27.836-39.243
								c-25.26-9.918-31.583-21.527-27.461-50.582c1.345-9.479-0.646-19.031-4.605-26.214c-6.674-11.712-21.251-11.51-31.797-22.177
								c-8.717-9.138-9.762-21.965-2.511-43.976C237.022,127.551,236.857,119.705,229.753,104.439L229.753,104.439z
								 M371.166,103.864l17.227,2.505l-10.003,12.904L371.166,103.864z M-61.798,110.898l14.882,4.015l-11.113,11.674
								L-61.798,110.898z M527.976,110.499c5.095-0.168,14.964,1.557,23.063,5.524c18.57,9.113,21.976,16.658,5.726,12.678
								c-9.161-2.249-22.313-1.652-34.987,1.565c-13.384,3.392-13.103,3.54-8.534-4.594
								C519.03,115.373,520.522,110.747,527.976,110.499z M461.22,114.753c11.226-0.238,22.568,2.904,33.226,6.834l-3.338,5.807
								c-7.366-1.177-15.123-4.732-26.323-3.776c4.642,8.764,10.12,13.271,17.471,20.981l-2.692,5.836
								c-0.652,0.794-21.441-16.352-25.658-27.924C452.001,117.281,453.69,114.99,461.22,114.753L461.22,114.753z M217.902,117.531
								c5.549-0.033,10.057,4.436,10.09,9.974c0.033,5.544-4.423,10.082-9.972,10.115c-5.543,0.033-10.057-4.452-10.09-9.996
								C207.898,122.085,212.359,117.563,217.902,117.531z M425.718,116.602c0,0,16.535,32.252,15.508,33.495
								c-10.112,4.527-21.164,6.901-32.28,11.025l2.083-9.422c0,0,3.71-0.271,16.137-5.087c5.945-2.31-6.619-18.819-6.619-18.819
								L425.718,116.602z M359.287,119.413l16.966,2.943l-11.228,12.718L359.287,119.413z M42.361,121.405
								c4.009-0.344,10.245,7.389,10.226,7.406L32.21,157.31c-9.786-1.908-7.789-16.73,1.162-17.231
								c2.069-0.001,5.85,0.33,5.85,0.33s-2.764-1.486-4.366-3.58C28.812,129.619,34.451,122.081,42.361,121.405L42.361,121.405z
								 M213.204,124.71l2.242,3.83l2.253,3.83l2.197-3.856l2.208-3.856l-4.45,0.026L213.204,124.71z M312.645,126.829
								c23.861,0.058,24.33,29.334,19.824,39.047c-3.285,6.668-8.316,10.386-23.553,17.374c-13.196,6.058-14.674,5.658-14.674,5.658
								l-3.209-7.033c0,0,7.689-3.447,15.971-6.848c17.112-7.031,21.255-12.352,19.302-24.749
								c-2.765-17.555-16.357-20.203-42.544-8.27c-3.041,1.382-6.874,2.774-6.874,2.774l-1.82-3.529
								c0.418-0.356,20.96-11.273,32.495-14.02C309.37,126.964,311.055,126.827,312.645,126.829L312.645,126.829z M-56.376,132.193
								l13.529,4.376l-9.788,9.733L-56.376,132.193z M545.022,132.416c11.927-0.104,21.765,1.859,21.758,6.112
								c0.012,2.016-0.461,2.189-11.162,3.738c-16.267,2.355-43.4,16.414-58.634,29.404c-9.016,7.691-6.683,5.904-2.929-5.195
								c3.733-11.033,9.328-24.215,12.387-26.243C514.083,135.177,531.5,132.534,545.022,132.416L545.022,132.416z M349.963,135.096
								l11.489,2.439l-7.424,7.289L349.963,135.096z M311.525,141.558c9.312,0.42,12.254,9.647,8.081,15.47
								c-6.823,9.522-31.429,17.382-31.429,17.382l-8.493-22.403C279.683,152.006,298.807,140.992,311.525,141.558z
								 M272.721,144.503c27.002,74.982,59.796,123.6,94.431,163.835l-8.281,5.251c-36.791-43.006-70.716-93.45-95.387-167.86
								L272.721,144.503z M566.084,144.815c1.26-0.018,2.017,0.375,1.744,1.641c-0.661,3.08-47.514,48.716-74.696,71.932
								c-12.382,10.577-11.963,10.486-13.031,9.194c-0.72-7.804,4.417-35.689,7.599-40.567
								c18.138-19.424,46.132-35.571,73.546-41.381C563.037,145.253,564.818,144.829,566.084,144.815z M309.574,146.959
								c-3.21,0.107-8.026,2.09-14.454,4.608c-9.342,3.672-10.124,8.034-5.89,13.41c1.846,2.347,3.728,1.822,12.703-1.792
								c9.169-3.699,13.124-5.346,13.665-8.618C316.368,149.79,313.716,146.819,309.574,146.959L309.574,146.959z M310.085,149.513
								c3.232-0.047,3.18,2.035,3.559,3.403c0.391,1.406-2.111,2.884-4.298,2.88c-0.776,0.005-2.669,0.447-3.858,1.685
								c-1.164,1.719-1.925,3.369-4.055,2.978c-1.24-0.23-3.53-0.299-4.425,0.49c-4.17,3.675-8.368,0.679-6.45-2.999
								c0.485-0.925,2.184-1.405,3.558-1.407c1.196-0.002,3.915-0.294,4.299-1.765c0.464-1.748,3.144-2.25,5.008-2.2
								c2.033,0.259,3.659-0.772,4.182-1.626C308.355,150.274,309.234,149.523,310.085,149.513z M94.406,151.343
								c5.543-0.033,10.076,4.436,10.109,9.98c0.033,5.539-4.447,10.077-9.99,10.109s-10.057-4.452-10.09-9.991
								C84.402,155.897,88.863,151.376,94.406,151.343z M-50.792,152.415l15.217,1.976l-9.506,12.337L-50.792,152.415z
								 M252.881,158.36c5.538-0.033,10.057,4.436,10.09,9.974c0.033,5.544-4.434,10.066-9.972,10.099
								c-5.549,0.033-10.068-4.436-10.101-9.98C242.866,162.914,247.332,158.393,252.881,158.36z M248.256,165.284l2.248,3.825
								l2.248,3.83l2.202-3.856l2.202-3.851l-4.45,0.026L248.256,165.284z M-43.886,171.454l16.51,0.957l-9.38,12.685
								L-43.886,171.454z M43.244,173.353c5.546-0.033,10.057,4.425,10.093,9.969c0.033,5.544-4.428,10.06-9.974,10.093
								c-5.543,0.033-10.057-4.43-10.09-9.975S37.7,173.386,43.244,173.353z M455.49,177.177c6.884-0.151,14.872,0.498,14.872,0.498
								l-1.894,7.731c-8.388,0.85-19.166-1.417-28.14,2.402c3.372,5.447,23.005,13.057,25.182,14.971
								c0.209,0.816-1.579,8.188-1.579,8.188c0.539,1.874-33.222-13.471-34.415-26.585
								C429.54,179.937,444.027,177.427,455.49,177.177L455.49,177.177z M339.736,185.884c19.136,0.064,28.743,26.713,21.378,38.585
								c-9.276,12.938-19.511,18.482-33.584,25.623l-5.061-7.718c23.821-10.329,40.613-25.04,29.991-40.169
								c-12.225-16.611-29.757-1.404-49.023,5.756l-3.452-6.17C300.882,202.293,326.783,186.501,339.736,185.884z M401.381,186.514
								c9.241,17.617,24.953,30.888,29.239,34.071c0,0-15.51,10.092-24.77,16.514l-5.5-6.395l13.287-11.537l-15.159-20.89
								L401.381,186.514z M-33.783,190.871l15.025-0.061l-6.347,13.572L-33.783,190.871z M547.99,189.917
								c-1.64,8.74-1.844,18.002-2.506,28.206c3.315,2.99,6.281,4.48,8.871,4.288c2.849-9.189,4.873-19.622,3.42-30.337
								C555.015,189.948,551.407,190.212,547.99,189.917L547.99,189.917z M553.27,192.769c1.094,0.126,2.116,1.617,2.315,4.228
								c0.455,5.895,0.314,13.119-1.618,18.018c-1.387,3.167-4.589,1.999-4.728-2.297c-0.18-5.814,0.351-10.771,1.279-15.994
								C551.02,193.881,552.182,192.643,553.27,192.769z M338.687,201.744c9.873,0.682,13.715,8.909,10.108,14.851
								c-8.843,11.439-17.946,13.558-29.597,20.215l-11.797-21.743C307.401,215.066,330.048,202.105,338.687,201.744
								L338.687,201.744z M338.436,206.622c-6.558-0.293-10.622,4.011-16.09,6.733c-6.693,3.331-8.839,8.429-4.255,13.019
								c5.054,5.57,23.419-7.273,25.395-11.128C346.213,209.912,343.275,206.831,338.436,206.622L338.436,206.622z M-21.357,209.667
								l14.708,0.073l-7.883,11.273L-21.357,209.667z M337.922,208.922c0.614,0.024,1.3,0.329,2.166,0.981
								c1.726,1.299,2.027,4.864-1.49,5.785c-1.781,0.469-4.857,0.498-4.913,2.878c-0.038,1.773-2.749,2.451-4.291,2.207
								c-1.585-0.245-4.253-0.361-4.758,1.619c-1.336,2.703-2.354,2.758-4.256,0.887c-2.048-2.042-1.105-4.643,2.858-5.103
								c1.691-0.192,3.149-1.432,3.755-2.739c-0.107-1.684,1.073-2.662,2.939-2.287c2.64-0.043,4.358-1.036,6.218-3.51
								C336.749,209.161,337.297,208.898,337.922,208.922L337.922,208.922z M253.825,210.634c5.543-0.033,10.057,4.419,10.09,9.958
								c0.033,5.544-4.428,10.082-9.972,10.115c-5.538,0.033-10.057-4.452-10.09-9.996
								C243.821,215.171,248.287,210.666,253.825,210.634z M249.719,217.759l2.253,3.83l2.242,3.825l2.208-3.851l2.197-3.857
								l-4.45,0.026L249.719,217.759z M39.69,230.347c5.543-0.033,10.084,4.452,10.117,9.996c0.033,5.544-4.455,10.055-9.999,10.087
								c-5.546,0.033-10.057-4.425-10.093-9.969C29.683,234.918,34.147,230.38,39.69,230.347z M460.828,235.355l-0.145,1.011
								l0.122,6.99c0.261,0.341-13.981,7.985-23.255,12.253c-3.007,1.663-1.024,5.374-0.822,8.664l-4.549,3.224
								c0,0-6.91-5.167-7.741-8.055c-2.317-9.137,25.292-21.261,36.395-24.088H460.828z M-200.326,240.676l115.379,77.901
								l-7.781,11.505l-107.158-71.947L-200.326,240.676z M377.773,239.253c14.428,3.797,24.907,21.241,22.628,34.971
								c-8.423,16.031-18.43,21.016-32.708,29.853l-5.459-6.65c17.458-8.668,37.892-23.257,26.608-41.06
								c-12.398-16.737-31.561,1.423-49.946,9.926l-5.148-6.911C348.052,253.201,362.432,239.647,377.773,239.253z M296.428,245.454
								c5.549-0.033,10.079,4.436,10.112,9.98s-4.444,10.082-9.993,10.115c-5.538,0.033-10.068-4.452-10.101-9.996
								S290.891,245.487,296.428,245.454z M-14.869,250.107c5.543-0.033,10.06,4.43,10.093,9.974
								c0.033,5.544-4.431,10.049-9.974,10.082s-10.057-4.419-10.09-9.963C-24.873,254.656-20.412,250.14-14.869,250.107z
								 M292.198,252.525l2.248,3.83l2.253,3.83l2.197-3.856l2.208-3.856l-4.45,0.026L292.198,252.525z M374.633,256.744
								c3.092-0.112,5.973,0.589,8.386,2.469c12.144,12.028-14.166,27.794-24.465,33.543l-14.577-19.882
								C343.977,272.873,361.259,257.226,374.633,256.744L374.633,256.744z M374.745,261.067
								c-6.801-0.341-17.28,7.656-20.918,12.074c-2.308,3.233-1.239,6.424,3.192,10.529c3.746,2.198,24.176-12.258,23.724-15.851
								C380.165,263.095,377.832,261.22,374.745,261.067z M-199.353,265.073l3.215,2.129l-3.188,2.548L-199.353,265.073z
								 M374.834,263.485c1.024,0.088,1.922,0.657,2.682,1.674c1.432,1.725,0.593,4.679-2.426,5.211
								c-1.518,0.274-3.767,0.702-4.486,2.959c-0.595,1.484-2.667,2.755-4.714,2.717c-2.363-0.533-3.604,0.905-3.727,1.944
								c-1.152,2-4.037,2.338-5.805,0.481c-1.377-1.45,1.055-5.644,2.671-5.588c0.292,0.131,2.061,0.518,4.199-2.372
								c0.419-2.09,2.835-3.38,4.603-3.318c1.792,0.602,2.831-1.386,3.541-2.489C372.66,263.802,373.81,263.403,374.834,263.485
								L374.834,263.485z M-191.687,270.037l4.63,3.093l-12.196,8.764l-0.041-7.002L-191.687,270.037z M-182.704,275.837l6.306,4.16
								l-22.769,16.519l-0.052-8.885L-182.704,275.837z M-170.938,283.251l6.657,4.345l-34.799,23.813l-0.054-9.106
								L-170.938,283.251z M-158.316,289.554l0.045,7.587l-40.723,28.79l-0.045-7.692L-158.316,289.554z M-153.661,294.988
								l8.838,5.962l3.735,257.326l-54.884,38.184l-0.021-11.254l46.07-33.709L-153.661,294.988z M511.084,298.024
								c-12.269,14.182-28.851,15.224-43.307,14.923c-38.946,0.776-63.111,3.007-67.841,49.477
								c15.795-11.955,32.61-13.595,52.099-13.147c24.667-0.179,35.75-1.862,45.751-6.924c16.06-8.135,26.168-22.586,24.169-32.669
								C520.024,307.513,514.971,298.536,511.084,298.024z M-158.229,304.226l0.052,8.901l-40.729,27.636l-0.053-9.045
								L-158.229,304.226z M308.767,302.288c5.543-0.033,10.079,4.436,10.112,9.974c0.033,5.544-4.45,10.055-9.993,10.087
								c-5.549,0.033-10.057-4.425-10.09-9.969C298.763,306.842,303.218,302.321,308.767,302.288z M512.754,302.536
								c2.219-0.157,2.532,2.818-2.009,7.329c-8.596,8.527-17.536,12.733-45.961,12.392c-30.02-0.358-41.704,4.438-49.393,17.852
								c-2.234,3.901-2.177,5.419,1.07,2.462c2.728-3.28,8.929-9.595,11.545-3.663c5.082-3.365,9.458-8.477,12.168-2.071
								c1.474-0.334,10.075-9.055,12.167-1.392c4.105-4.646,7.646-6.109,9.624,0.44c5.866-2.823,8.949-8.126,12.332-0.852
								c4.721-3.418,8.278-7.669,11.08-1.231c4.033-1.211,8.105-8.646,10.478-2.757c0.432,0.141,14.979-8.725,19.06-17.436
								c3.343-7.685,6.492-2.612,2.687,5.236c-9.788,19.225-26.673,26.322-65.525,26.612c-23.579,0.161-33.322,2.533-40.698,6.895
								c-11.854,7.006-5.546-10.493,2.72-21.139c10.426-13.409,22.384-17.422,55.198-16.423c17.929-0.001,29.378-2.542,34.203-6.486
								C507.591,304.964,510.546,302.699,512.754,302.536z M41.799,305.586c72.273,1.816,225.723-1.332,225.723-1.332l8.247,9.897
								l-241.292,1.424L41.799,305.586z M-20.201,309.746c5.541-0.033,10.074,4.452,10.106,9.996
								c0.033,5.544-4.447,10.066-9.988,10.099c-5.546,0.033-10.06-4.436-10.093-9.98
								C-30.207,314.317-25.747,309.779-20.201,309.746z M304.587,309.668l2.253,3.83l2.247,3.83l2.202-3.856l2.202-3.857
								l-4.45,0.026L304.587,309.668z M-158.148,317.998l0.053,9.051l-40.726,28.15l-0.055-9.255L-158.148,317.998z M39.612,321.172
								l31.733-0.187l0.198,33.491l-31.733,0.187L39.612,321.172z M110.725,320.752l34.146-0.201l0.198,33.491l-34.146,0.201
								L110.725,320.752z M186.741,321.386l32.945-0.194l0.191,32.409l-32.945,0.194L186.741,321.386z M258.132,321.611
								l21.941,0.627c0,0,12.266,15.423,17.448,22.538l-16.166,8.406l-23.035,0.191L258.132,321.611z M54.892,325.085
								c-6.171,0.036-11.141,5.058-11.104,11.226c0.036,6.174,5.065,11.147,11.236,11.111c6.174-0.036,11.151-5.069,11.115-11.243
								C66.103,330.011,61.066,325.049,54.892,325.085z M127.873,325.765c-6.174,0.036-11.152,5.047-11.115,11.221
								c0.036,6.168,5.073,11.153,11.247,11.116c6.174-0.036,11.149-5.08,11.112-11.248
								C139.08,330.68,134.047,325.728,127.873,325.765z M202.505,325.617c-6.174,0.036-11.165,5.036-11.129,11.21
								c0.036,6.174,5.087,11.163,11.261,11.127c6.174-0.036,11.149-5.085,11.112-11.259
								C213.713,330.521,208.679,325.581,202.505,325.617z M91.129,327.638c4.956-0.029,8.988,3.962,9.017,8.921
								c0.029,4.953-3.955,9.003-8.911,9.032c-4.959,0.029-8.988-3.973-9.017-8.926C82.188,331.706,86.17,327.667,91.129,327.638z
								 M24.409,328.927c2.213,1.561,3.674,4.098,3.691,7.008c0.028,4.788-3.833,8.693-8.619,8.721
								c-1.683,0.01-3.265-0.461-4.6-1.287L24.409,328.927z M54.915,328.862c4.083-0.024,7.435,3.258,7.459,7.339
								c0.024,4.086-3.286,7.425-7.372,7.449c-4.083,0.024-7.416-3.275-7.44-7.361C47.537,332.208,50.831,328.887,54.915,328.862z
								 M276.799,327.857c-6.174,0.036-11.149,5.047-11.113,11.221c0.036,6.174,5.071,11.153,11.244,11.116
								c6.174-0.036,11.154-5.074,11.118-11.248C288.012,332.772,282.972,327.82,276.799,327.857z M165.105,328.56
								c4.959-0.029,8.988,3.973,9.017,8.926c0.029,4.959-3.952,8.991-8.911,9.021c-4.956,0.029-9.004-3.956-9.033-8.915
								C156.148,332.639,160.149,328.589,165.105,328.56z M127.895,329.536c4.086-0.024,7.424,3.253,7.448,7.339
								c0.024,4.086-3.275,7.419-7.361,7.443c-4.086,0.024-7.427-3.27-7.451-7.356C120.507,332.877,123.809,329.56,127.895,329.536z
								 M-158.069,331.356l0.053,9.006l-40.722,28.807l-0.052-8.846L-158.069,331.356z M202.527,329.377
								c4.083-0.024,7.411,3.259,7.435,7.339c0.024,4.086-3.264,7.43-7.347,7.454c-4.089,0.024-7.438-3.28-7.462-7.367
								C195.129,332.724,198.438,329.402,202.527,329.377z M239,329.427c4.956-0.029,9.01,3.967,9.039,8.92
								c0.029,4.959-3.977,8.997-8.933,9.026c-4.956,0.029-8.966-3.962-8.996-8.921C230.081,333.5,234.043,329.456,239,329.427z
								 M276.821,331.639c4.089-0.024,7.427,3.242,7.451,7.328c0.024,4.086-3.275,7.43-7.363,7.454
								c-4.083,0.024-7.422-3.281-7.446-7.367C269.438,334.969,272.737,331.664,276.821,331.639z M-41.219,341.269
								c19.045-0.333,39.71,9.214,51.43,25.193c17.728,23.42,29.665,53.341,35.236,92.676c2.758,19.483,12.194,77.985,17.436,91.782
								l-7.103-1.322c-0.956,0.458-10.299-36.767-16.335-85.968c-2.233-18.227-6.24-41.739-16.955-63.157
								c-12.234-24.463-32.928-50.345-60.323-52.249c-15.975-1.109-30.902,8.99-32.435,23.098
								c-2.232,11.151,4.353,21.484,12.939,24.906c8.432,3.363,18.472,0.758,19.53-10.713c0.186-1.884-0.022-3.777-0.728-5.523
								c3.891-0.652,6.865,1.086,8.465,4.362c0.825,0.1,0.144,16.621-12.844,19.945c-15.646,5.222-33.839-10.182-35.341-25.989
								c-1.151-13.319,8.891-29.84,21.643-34.377C-51.759,342.21-46.552,341.367-41.219,341.269L-41.219,341.269z M-157.976,347.089
								l0.054,9.183l-40.724,28.464l-0.055-9.255L-157.976,347.089z M-40.257,352.225c22.873-0.787,45.288,24.594,54.82,41.336
								c9.946,17.474,17.905,45.271,20.743,71.457c4.831,44.536,13.588,80.931,15.399,82.577l-6.249-1.333
								c-1.299,0.886-10.129-39.297-15.626-84.056c-3.084-25.103-12.556-49.941-23.759-69.065
								c-10.337-17.649-24.212-30.798-40.552-32.624c-10.242-0.967-20.756,2.05-22.756,12.835
								c-1.056,6.335,2.294,12.539,9.806,13.035c1.768,0.117,3.463,0.239,3.776,0.292c3.977,0.689-2.226,7.17-6.337,6.625
								c-14.676-1.957-21.547-21.503-10.05-31.997C-54.314,355.174-47.26,352.466-40.257,352.225z M8.766,359.783l256.888-1.516
								c0,0,0.261,5.902-15.732,5.24c-13.601-0.566-22.372,1.159-31.373,4.106l-201.826,1.191L8.766,359.783z M-157.886,362.434
								l0.05,8.537l-40.722,28.862l-0.056-9.426L-157.886,362.434z M-38.469,365.347c4.934-0.095,9.971,1.151,13.773,3.32
								c31.928,18.239,44.354,63.912,48.712,92.685c5.968,42.613,12.801,82.2,14.643,83.161l-6.951-1.516
								c-0.926,0.033-8.73-36.898-13.699-78.302c-4.02-33.474-15.679-67.047-38.48-81.066c-14.639-9.832-17.502-10.809-24.216-4.976
								c-5.791,5.032-11.751-2.46-6.911-8.613C-48.255,366.879-43.404,365.448-38.469,365.347z M-157.796,377.609l0.041,7.002
								l-40.723,28.719l-0.049-8.3L-157.796,377.609z M23.476,377.594l5.689-0.034c0-0.022,0,0.011,0,0
								c0.525-0.489,22.317,35.139,29.478,92.843c3.773,30.378,14.352,82.158,16.003,82.574l-7.482-0.746
								c-7.825-30.531-12.224-59.441-16.464-85.503c-4.796-29.477-8.654-55.033-27.239-89.134L23.476,377.594z M34.089,377.531
								l6.685-0.039c11.555,21.689,23.899,54.938,28.296,88.785c3.798,29.234,7.637,58.966,18.29,89.888l-7.179-1.929
								c-9.139-25.094-12.508-55.474-17.532-86.949C57.096,432.502,48.536,402.799,34.089,377.531L34.089,377.531z M46.355,377.459
								l6.131-0.036c16.269,35.009,23.065,55.517,28.213,89.432c6.51,42.886,12.743,81.577,19.448,91.621l-7.499-0.442
								c-10.526-30.879-15.376-61.764-19.23-92.682C69.244,431.873,59.455,403.585,46.355,377.459z M57.854,377.391l5.929-0.035
								c0-0.039,0,0.016,0.046,0c0.625-0.943,22.532,41.847,27.828,89.434c3.527,31.66,11.119,62.971,21.48,93.183l-6.91-0.119
								c-8.038-9.186-14.276-52.902-21.106-93.71c-6.972-41.646-16.6-66.898-27.247-88.753L57.854,377.391z M69.97,377.32
								l5.349-0.031c11.866,30.197,19.552,44.074,25.111,81.294c4.316,28.889,10.377,65.019,23.923,103.241l-6.757-0.253
								c-10.028-26.381-17.795-61.744-21.457-95.74C91.163,419.661,70.162,377.048,69.97,377.32L69.97,377.32z M80.232,377.259
								l7.3-0.043c12.716,25.377,23.339,56.316,27.227,91.685c2.133,19.177,5.839,48.622,20.52,93.984l-5.831-0.341
								c-11.988-30.407-19.295-66.236-23.711-97.493C101.281,433.517,93.591,407.591,80.232,377.259L80.232,377.259z M91.885,377.19
								l8.883-0.052c15.468,35.323,23.532,73.103,25.75,85.658c0,0,2.169,11.098,2.331,14.742c-0.332,30.949,5.156,53,16.87,86.208
								l-5.274-0.35c-13.599-38.592-17.357-66.038-20.927-92.264C116.493,438.16,105.552,404.053,91.885,377.19z M105.6,377.109
								l6.801-0.04c9.228,22.648,16.406,46.29,22.843,68.153c-0.788,4.77-4.348,16.305-4.573,21.514
								c-0.45-17.768-11.455-60.915-25.068-89.627H105.6z M116.337,377.046l8.803-0.052c6.761,17.847,13.335,34.883,18.013,52.051
								l-4.609,11.011C131.941,416.278,123.685,395.789,116.337,377.046z M129.172,376.97l7.03-0.042l14.152,40.174l-4.502,7.984
								C141.658,411.819,136.51,395.36,129.172,376.97z M140.377,376.904l7.246-0.043c2.972,8.415,10.877,30.126,10.877,30.126
								l-4.821,6.489C153.678,413.477,143.371,385.374,140.377,376.904z M151.604,376.838l6.416-0.038
								c1.966,5.472,8.259,21.985,8.259,21.985l-4.416,4.814L151.604,376.838z M162.685,376.773l7.531-0.044l5.298,14.073l-5.5,4.71
								C170.014,395.511,164.198,382.087,162.685,376.773z M174.968,376.7l5.681-0.034l3.044,7.768l-4.615,3.567L174.968,376.7z
								 M185.187,376.64l10.852-0.064c-3.178,1.902-6.469,4.384-8.851,6.027L185.187,376.64z M-23.062,388.135
								c26.687,13.869,34.27,55.832,37.293,78.908c5.272,40.27,11.109,73.027,12.31,73.898l-5.907-0.904
								c0,0-4.483-20.688-7.616-40.373c-2.613-16.375-4.635-30.085-5.351-36.365c-0.449-3.918-1.13-8.481-1.512-10.13
								c-3.812-16.533-5.039-20.32-9.89-30.364c-6.958-13.245-11.136-18.34-21.334-27.949L-23.062,388.135z M-157.717,391.077
								l0.047,7.924l-40.723,29.122l-0.053-9.051L-157.717,391.077z M-157.635,404.976l0.054,9.122l-40.734,27.211l-0.048-8.073
								L-157.635,404.976z M-157.543,420.515l0.05,8.465l-40.726,28.735l-0.052-8.741L-157.543,420.515z M-89.192,428.666
								l3.604-0.021l0.283,5.581l-5.562,0.033L-89.192,428.666z M-157.449,436.391l0.053,9.045l-40.734,27.233l-0.05-8.438
								L-157.449,436.391z M-93.349,439.459l8.644-0.051l-0.057,6.307l-11.111,0.066L-93.349,439.459z M-98.311,449.445l14.2-0.084
								l0.036,6.168l-17.6,0.104L-98.311,449.445z M-157.363,451.08l0.056,9.492l-40.733,27.432l-0.056-9.537L-157.363,451.08z
								 M-105.48,460.648l20.784-0.123l-0.093,5.175l-24.816,0.146L-105.48,460.648z M-157.272,466.459l0.055,9.283l-40.739,26.421
								l-0.049-8.355L-157.272,466.459z M-114.099,470.898l28.546-0.168l-0.673,5.046l-32.552,0.192L-114.099,470.898z
								 M-157.186,480.965l0.053,8.918l-40.736,26.885l-0.051-8.581L-157.186,480.965z M-124.747,481.354l37.573-0.222l7.951,6.282
								l-58.472,0.345C-133.438,485.773-128.132,483.732-124.747,481.354L-124.747,481.354z M-136.974,494.017l64.578-0.381
								l6.047,4.934l-70.596,0.417L-136.974,494.017z M-157.096,496.179l0.056,9.47l-40.736,27.023l-0.051-8.648L-157.096,496.179z
								 M-136.913,504.376l72.585-0.102l-6.091,5.779l-66.458,0.392l-0.034-5.743L-136.913,504.376z M-157.005,511.674l0.051,8.659
								l-40.73,28.001l-0.059-9.956L-157.005,511.674z M-137.628,516.076l61.882-0.365l-7.221,6.934l-42.752,0.252L-137.628,516.076
								z M-156.915,526.903l0.049,8.278l-40.721,29.536l-0.055-9.283L-156.915,526.903z M-119.452,527.737l36.325-0.214l1.091,4.953
								l-31.617,0.187L-119.452,527.737z M-109.343,537.733l28.272-0.167c0.449,2.096,0.52,4.15,0.972,6.251l-24.043,0.142
								L-109.343,537.733z M-156.823,542.42l0.045,7.687l-40.725,28.79l-0.05-8.51L-156.823,542.42z M-100.469,548.389l21.01-0.124
								l0.125,6.631l-16.406,0.097L-100.469,548.389z M-93.888,558.991l14.349-0.085l-0.444,6.491l-11.267,0.067L-93.888,558.991z
								 M-89.8,570.266l9.15-0.054l-0.744,4.947l-7.076,0.042L-89.8,570.266z M-86.982,581.829l4.461-0.026l-0.734,3.804
								l-2.279,0.013L-86.982,581.829z M3.871,645.467l-2.12,2.746l63.929-0.377l0.687-2.738L3.871,645.467z M86.297,644.981
								l-1.109,3.706l28.851-0.17l0.778-3.705L86.297,644.981z M133.425,645.432l-0.86,3.49l73.747-0.435l-1.243-3.477
								L133.425,645.432z M221.672,644.911l1.523,4.221l24.824-0.146l-1.673-4.22L221.672,644.911z M307.295,644.406l-43.555,0.274
								l1.596,4.729l45.047-0.266L307.295,644.406z"/>
						</g>
					</g>
				</g>
			</g>
		</g>
		<path id="path163-0-2-5-8-7-5-0-7-4" fill="#C8102E" d="M3150.469-675.234c0,0-3.484-5.724-8.184-12.452
			c-3.144-4.503-5.658-9.379-5.892-13.579c-0.268-4.797,2.269-9.61,6.863-9.843c4.591-0.233,6.454,3.698,7.212,6.94
			c0.759-3.242,2.622-7.174,7.213-6.94c4.594,0.232,7.131,5.046,6.863,9.843c-0.233,4.2-2.747,9.076-5.892,13.579
			C3153.953-680.958,3150.469-675.234,3150.469-675.234L3150.469-675.234z"/>
		<path id="path163-0-2-5-8-7-7-8-0-0-6" fill="#C8102E" d="M3227.772-562.78c0,0-3.484,5.724-8.184,12.452
			c-3.143,4.503-5.658,9.379-5.891,13.579c-0.268,4.797,2.269,9.611,6.862,9.844c4.591,0.232,6.455-3.699,7.213-6.941
			c0.759,3.242,2.622,7.174,7.213,6.941c4.593-0.233,7.131-5.047,6.862-9.844c-0.233-4.2-2.746-9.076-5.891-13.579
			C3231.257-557.056,3227.772-562.78,3227.772-562.78z"/>
	</g>
</g>
</svg>
